<svg width="268" height="150" viewBox="0 0 268 150" fill="none" xmlns="http://www.w3.org/2000/svg">
<path d="M166.313 0.439728H0.439728V148.844H166.313V0.439728Z" fill="#FAFAFA"/>
<path d="M166.321 148.844C166.321 148.844 166.297 147.892 166.281 146.085C166.273 144.262 166.257 141.6 166.241 138.13C166.217 131.167 166.185 120.981 166.145 108.005C166.097 82.077 166.033 45.028 165.953 0.431732L166.329 0.807498C118.55 0.839478 61.5378 0.863464 0.455717 0.887449H0.439727L0.879454 0.447722C0.871459 54.4382 0.847473 105.239 0.831483 148.844L0.439727 148.452C49.921 148.532 91.3432 148.604 120.413 148.652C134.956 148.7 146.413 148.732 154.248 148.756C158.158 148.78 161.156 148.788 163.203 148.804C164.21 148.812 164.97 148.82 165.513 148.828C166.041 148.828 166.321 148.844 166.321 148.844C166.321 148.844 166.073 148.86 165.569 148.868C165.041 148.876 164.29 148.883 163.299 148.891C161.268 148.899 158.286 148.915 154.416 148.939C146.597 148.963 135.172 148.995 120.669 149.043C91.5351 149.091 50.0329 149.155 0.447722 149.243H0.0559652V148.852C0.0399752 105.239 0.0159901 54.4382 0 0.439727V0H0.439727H0.455717C61.5378 0.0239851 118.542 0.0479702 166.321 0.0639603H166.696V0.439727C166.616 45.132 166.553 82.2609 166.505 108.253C166.465 121.189 166.433 131.342 166.409 138.29C166.393 141.728 166.377 144.366 166.369 146.173C166.345 147.948 166.321 148.844 166.321 148.844Z" fill="#E0E0E0"/>
<path d="M64.0482 26.8154C64.0482 27.0632 55.3176 27.2551 44.5483 27.2551C33.779 27.2551 25.0484 27.0552 25.0484 26.8154C25.0484 26.5675 33.779 26.3756 44.5483 26.3756C55.3176 26.3676 64.0482 26.5675 64.0482 26.8154Z" fill="#E0E0E0"/>
<path d="M134.333 37.9524C134.333 38.2003 110.347 38.3922 80.7658 38.3922C51.1762 38.3922 27.1911 38.1923 27.1911 37.9524C27.1911 37.7046 51.1762 37.5127 80.7658 37.5127C110.347 37.5127 134.333 37.7126 134.333 37.9524Z" fill="#E0E0E0"/>
<path d="M32.3239 56.8287H25.3363V63.8163H32.3239V56.8287Z" fill="#E0E0E0"/>
<path d="M49.5212 56.8287H42.5336V63.8163H49.5212V56.8287Z" fill="#E0E0E0"/>
<path d="M67.0383 56.5089H60.0507V63.4965H67.0383V56.5089Z" fill="#E0E0E0"/>
<path d="M83.9239 56.8287H76.9362V63.8163H83.9239V56.8287Z" fill="#E0E0E0"/>
<path d="M101.129 56.8287H94.1415V63.8163H101.129V56.8287Z" fill="#E0E0E0"/>
<path d="M118.334 56.8287H111.347V63.8163H118.334V56.8287Z" fill="#E0E0E0"/>
<path d="M135.532 56.8287H128.544V63.8163H135.532V56.8287Z" fill="#EBEBEB"/>
<path d="M32.3239 71.6835H25.3363V78.6711H32.3239V71.6835Z" fill="#EBEBEB"/>
<path d="M49.5212 71.6835H42.5336V78.6711H49.5212V71.6835Z" fill="#E0E0E0"/>
<path d="M66.7265 71.6835H59.7389V78.6711H66.7265V71.6835Z" fill="#EBEBEB"/>
<path d="M83.9239 71.6835H76.9362V78.6711H83.9239V71.6835Z" fill="#EF86E3"/>
<path d="M101.129 71.6835H94.1415V78.6711H101.129V71.6835Z" fill="#E0E0E0"/>
<path d="M118.646 71.3716H111.659V78.3593H118.646V71.3716Z" fill="#E0E0E0"/>
<path d="M135.532 71.6835H128.544V78.6711H135.532V71.6835Z" fill="#E0E0E0"/>
<path d="M32.3239 86.5462H25.3363V93.5339H32.3239V86.5462Z" fill="#E0E0E0"/>
<path d="M49.8411 86.2264H42.8534V93.2141H49.8411V86.2264Z" fill="#EF86E3"/>
<path d="M66.7265 86.5462H59.7389V93.5339H66.7265V86.5462Z" fill="#E0E0E0"/>
<path d="M83.9239 86.5462H76.9362V93.5339H83.9239V86.5462Z" fill="#EBEBEB"/>
<path d="M101.129 86.5462H94.1415V93.5339H101.129V86.5462Z" fill="#E0E0E0"/>
<path d="M118.334 86.5462H111.347V93.5339H118.334V86.5462Z" fill="#EF86E3"/>
<path d="M135.532 86.5462H128.544V93.5339H135.532V86.5462Z" fill="#E0E0E0"/>
<path d="M32.3239 101.401H25.3363V108.389H32.3239V101.401Z" fill="#E0E0E0"/>
<path d="M49.5212 101.401H42.5336V108.389H49.5212V101.401Z" fill="#E0E0E0"/>
<path d="M66.7265 101.401H59.7389V108.389H66.7265V101.401Z" fill="#E0E0E0"/>
<path d="M84.2436 101.081H77.256V108.069H84.2436V101.081Z" fill="#E0E0E0"/>
<path d="M101.129 101.401H94.1415V108.389H101.129V101.401Z" fill="#E0E0E0"/>
<path d="M118.334 101.401H111.347V108.389H118.334V101.401Z" fill="#EBEBEB"/>
<path d="M135.532 101.401H128.544V108.389H135.532V101.401Z" fill="#E0E0E0"/>
<path d="M32.3239 116.256H25.3363V123.243H32.3239V116.256Z" fill="#E0E0E0"/>
<path d="M49.5212 116.256H42.5336V123.243H49.5212V116.256Z" fill="#EBEBEB"/>
<path d="M66.7265 116.256H59.7389V123.243H66.7265V116.256Z" fill="#EF86E3"/>
<path d="M83.9239 116.256H76.9362V123.243H83.9239V116.256Z" fill="#E0E0E0"/>
<path d="M101.129 116.256H94.1415V123.243H101.129V116.256Z" fill="#E0E0E0"/>
<path d="M118.646 115.936H111.659V122.924H118.646V115.936Z" fill="#E0E0E0"/>
<path d="M135.532 116.256H128.544V123.243H135.532V116.256Z" fill="#E0E0E0"/>
<path d="M133.621 53.2389L131.486 33.1634L121.245 35.4739L112.426 19.8836L117.927 40.9585L128.312 38.576L133.621 53.2389Z" fill="#DDDA5B"/>
<path d="M129.456 57.0286L119.942 47.2346L115.456 52.7432L104.255 48.1301L115.976 57.0525L120.509 51.448L129.456 57.0286Z" fill="#DDDA5B"/>
<path d="M232.304 65.6872L240.954 49.953L248.558 55.3656L261.15 45.6117L249.397 61.0101L241.698 55.4935L232.304 65.6872Z" fill="#DDDA5B"/>
<path d="M248.174 74.6656L257.12 70.852L258.551 75.697L267.17 75.7529L257.024 78.3833L255.585 73.4584L248.174 74.6656Z" fill="#DDDA5B"/>
<path d="M186.116 13.5356C186.116 13.5356 186.476 13.3037 187.196 12.872C187.923 12.4563 189.011 11.8406 190.53 11.201C193.528 9.92183 198.309 8.3548 204.673 8.59465C205.464 8.63463 206.28 8.6826 207.111 8.79453C207.943 8.88247 208.798 9.01839 209.654 9.25824C210.509 9.49809 211.365 9.8099 212.172 10.2816C212.972 10.7613 213.739 11.3929 214.227 12.2564C214.739 13.1039 214.898 14.1672 214.723 15.1826C214.523 16.2059 213.955 17.1333 213.244 17.9249C211.78 19.4919 209.782 20.5872 207.623 21.3227C203.338 22.8978 198.397 23.7452 193.176 23.3935C187.971 23.0497 182.471 21.5626 177.426 18.5645L177.314 18.5005L177.386 18.3886C179.313 15.2465 182.239 12.6162 185.685 10.7613C189.138 8.90646 193.104 7.75517 197.245 7.45136C201.395 7.13956 205.68 7.5553 209.958 8.48272C212.092 8.93844 214.235 9.50609 216.378 10.1697C218.512 10.8333 220.687 11.5208 222.734 12.6082C224.772 13.6715 226.675 15.2145 227.858 17.2932C228.442 18.3326 228.866 19.4839 228.97 20.6911C229.098 21.8984 228.858 23.1376 228.378 24.2569C227.379 26.5275 225.332 28.1345 223.181 29.2778C221.007 30.4371 218.6 31.1646 216.178 31.7323C206.48 34.1068 195.894 34.4986 185.365 32.5158C184.701 32.4039 184.054 32.252 183.398 32.108C182.742 31.9721 182.087 31.8202 181.431 31.6523C180.12 31.3405 178.801 30.9887 177.538 30.4611C176.274 29.9494 175.043 29.2858 173.98 28.3744C172.925 27.4709 172.061 26.2397 171.829 24.8166C171.565 23.4094 171.941 21.9144 172.725 20.7311C173.492 19.5319 174.564 18.5725 175.707 17.749C176.858 16.9255 178.121 16.2779 179.393 15.6862C180.024 15.3664 180.672 15.0946 181.327 14.8148C181.975 14.527 182.631 14.2631 183.302 14.0233C188.619 12.0325 194.351 10.9212 200.172 10.8333C203.082 10.7853 206.016 10.9852 208.926 11.4409C209.654 11.5528 210.381 11.6727 211.101 11.8326C211.82 11.9845 212.548 12.1285 213.259 12.3283C214.699 12.6801 216.138 13.0959 217.505 13.7035C218.88 14.2951 220.207 15.0546 221.342 16.062C222.478 17.0614 223.405 18.3806 223.765 19.8916L223.885 20.4593L223.933 21.0349C223.989 21.4187 223.925 21.8104 223.909 22.1942C223.789 22.9537 223.597 23.7213 223.237 24.4088C222.574 25.816 221.502 26.9672 220.343 27.9586C219.176 28.95 217.865 29.7735 216.505 30.4771C215.826 30.8368 215.122 31.1406 214.419 31.4365C213.723 31.7483 213.012 32.0281 212.292 32.3079C209.438 33.4192 206.488 34.3307 203.474 35.0182C197.445 36.4174 191.169 36.945 184.893 36.5533C181.759 36.3534 178.569 35.6978 175.755 34.1468C174.364 33.3633 173.068 32.3239 172.181 30.9488C171.31 29.5736 170.902 27.9107 171.03 26.2797C171.142 24.9365 171.629 23.6573 172.333 22.538C173.036 21.4107 173.924 20.4193 174.899 19.5558C176.866 17.8209 179.177 16.5337 181.559 15.5503C186.316 13.5276 191.385 12.3283 196.47 11.9526C199.012 11.7687 201.563 11.7847 204.089 12.0085C205.352 12.1205 206.608 12.2804 207.847 12.4962C209.086 12.6961 210.341 12.9599 211.533 13.3837C212.724 13.8074 213.891 14.3271 214.922 15.0786C215.954 15.8142 216.881 16.7736 217.369 17.9808C217.889 19.1641 217.905 20.5472 217.489 21.7545C217.081 22.9697 216.306 24.0251 215.37 24.8645C213.451 26.5595 210.973 27.271 208.614 27.8387C206.24 28.4063 203.873 28.966 201.507 29.4857C196.782 30.533 192.041 31.4125 187.292 31.7882C182.551 32.188 177.794 32.0121 173.204 31.1087C168.631 30.1972 164.234 28.4943 160.46 25.9119L160.252 25.768L160.436 25.6001C167.008 19.8117 175.203 16.3498 183.438 15.1666C191.689 13.9753 200.044 15.0466 207.287 18.2447C208.175 18.6924 209.03 19.2041 209.782 19.8676C210.533 20.5152 211.181 21.3307 211.509 22.2901C211.828 23.2575 211.772 24.3209 211.365 25.2483C210.949 26.1677 210.253 26.9033 209.478 27.4949C207.919 28.6782 206.08 29.3098 204.297 29.9094C202.498 30.4851 200.667 30.9168 198.836 31.2046C195.159 31.7643 191.465 31.7723 187.915 31.2126C187.028 31.0447 186.116 30.7969 185.389 30.1892C184.653 29.5976 184.293 28.5902 184.469 27.6708C184.669 26.7514 185.237 25.9998 185.869 25.3842C186.508 24.7606 187.252 24.2729 188.027 23.8732C194.359 21.0189 201.179 20.1315 207.511 20.8191C209.094 20.9949 210.661 21.2908 212.124 21.8824C213.579 22.458 214.922 23.3695 215.834 24.6247C216.745 25.8639 217.281 27.407 217.105 28.926C216.937 30.4611 215.97 31.7483 214.867 32.6837C213.755 33.6351 212.5 34.3227 211.277 35.0262C210.038 35.6898 208.782 36.2974 207.503 36.7931C204.961 37.8085 202.378 38.5041 199.828 38.9118C194.727 39.7353 189.802 39.3995 185.445 38.2882L185.301 38.2482L185.389 38.1283C187.508 35.2181 190.426 33.2433 193.392 32.156C196.366 31.0687 199.42 30.8128 202.122 31.3005C203.474 31.5164 204.761 31.9561 205.816 32.6837C206.336 33.0515 206.792 33.4992 207.119 34.0189C207.439 34.5385 207.655 35.1222 207.711 35.7058C207.839 36.8811 207.407 37.9844 206.832 38.8559C206.256 39.7433 205.512 40.4229 204.769 40.9905C203.258 42.1258 201.651 42.6055 200.348 43.1412C199.028 43.6449 197.933 44.1086 197.11 44.5803C196.286 45.052 195.718 45.5077 195.375 45.8355C195.191 45.9954 195.079 46.1393 194.991 46.2193C194.903 46.3072 194.863 46.3472 194.863 46.3472C194.863 46.3472 195.015 46.1553 195.359 45.8115C195.702 45.4677 196.262 45.012 197.086 44.5243C197.909 44.0446 199.004 43.5649 200.324 43.0532C201.627 42.5176 203.226 42.0219 204.713 40.8946C205.448 40.3349 206.176 39.6474 206.736 38.7839C207.303 37.9284 207.711 36.8571 207.583 35.7218C207.527 35.1542 207.319 34.6025 207.007 34.0988C206.688 33.6031 206.24 33.1714 205.736 32.8116C204.705 32.108 203.442 31.6763 202.106 31.4604C199.428 30.9887 196.406 31.2526 193.464 32.3319C190.538 33.4192 187.651 35.378 185.565 38.2562L185.509 38.0963C189.842 39.1916 194.743 39.5194 199.804 38.688C202.33 38.2722 204.897 37.5766 207.423 36.5693C208.694 36.0736 209.934 35.466 211.165 34.8104C212.372 34.1148 213.627 33.4272 214.707 32.4918C215.786 31.5804 216.689 30.3571 216.849 28.91C217.009 27.4709 216.505 25.9918 215.618 24.8086C214.747 23.6013 213.443 22.7299 212.028 22.1622C210.605 21.5866 209.062 21.2988 207.495 21.1229C201.227 20.4433 194.439 21.3467 188.187 24.169C187.436 24.5607 186.716 25.0324 186.108 25.6241C185.501 26.2077 184.973 26.9273 184.805 27.7428C184.653 28.5503 184.965 29.4297 185.621 29.9574C186.268 30.501 187.132 30.7489 187.995 30.9008C191.505 31.4525 195.175 31.4445 198.812 30.8848C200.627 30.597 202.442 30.1653 204.225 29.5976C205.992 28.998 207.799 28.3744 209.302 27.2311C210.046 26.6634 210.701 25.9679 211.077 25.1204C211.445 24.2729 211.493 23.2975 211.205 22.4181C210.901 21.5386 210.301 20.7711 209.574 20.1475C208.854 19.5159 208.023 19.0122 207.151 18.5725C199.996 15.4224 191.681 14.3511 183.51 15.5423C175.347 16.7256 167.224 20.1635 160.716 25.8959L160.708 25.5841C164.434 28.1345 168.783 29.8135 173.316 30.7169C177.858 31.6124 182.575 31.7802 187.292 31.3805C192.009 31.0047 196.726 30.1253 201.451 29.0859C203.809 28.5662 206.176 28.0066 208.55 27.4389C210.893 26.8713 213.307 26.1597 215.13 24.5527C216.026 23.7532 216.753 22.7459 217.137 21.6106C217.521 20.4833 217.505 19.2201 217.025 18.1247C216.577 17.0134 215.706 16.11 214.723 15.3984C213.731 14.6789 212.596 14.1672 211.437 13.7594C210.269 13.3437 209.054 13.0879 207.815 12.888C206.584 12.6721 205.336 12.5122 204.089 12.4083C201.587 12.1844 199.06 12.1684 196.542 12.3603C191.497 12.7281 186.476 13.9193 181.759 15.9261C179.393 16.9015 177.13 18.1647 175.211 19.8597C173.324 21.5386 171.693 23.7532 171.477 26.3116C171.358 27.8467 171.741 29.4217 172.565 30.7169C173.396 32.0201 174.643 33.0195 175.987 33.779C178.721 35.2821 181.855 35.9377 184.949 36.1295C191.185 36.5213 197.421 35.9936 203.41 34.6105C206.408 33.9309 209.334 33.0275 212.172 31.9162C212.884 31.6443 213.587 31.3565 214.283 31.0527C214.986 30.7569 215.674 30.4531 216.346 30.1013C217.681 29.4137 218.968 28.6062 220.103 27.6388C221.231 26.6714 222.262 25.5521 222.894 24.2249C223.237 23.5773 223.413 22.8578 223.525 22.1382C223.541 21.7785 223.597 21.4107 223.549 21.0509L223.509 20.5073L223.397 19.9716C223.069 18.5565 222.198 17.3092 221.103 16.3498C220.007 15.3824 218.72 14.6389 217.369 14.0633C216.026 13.4716 214.611 13.0559 213.188 12.7121C212.484 12.5122 211.764 12.3683 211.045 12.2244C210.333 12.0645 209.606 11.9366 208.886 11.8326C206 11.3769 203.09 11.177 200.204 11.225C194.423 11.313 188.739 12.4083 183.47 14.3831C182.806 14.6149 182.151 14.8787 181.511 15.1666C180.864 15.4384 180.216 15.7102 179.592 16.03C178.321 16.6217 177.082 17.2613 175.963 18.0608C174.843 18.8603 173.812 19.7957 173.076 20.931C172.333 22.0583 171.989 23.4334 172.237 24.7446C172.453 26.0638 173.252 27.2151 174.26 28.0785C175.275 28.95 176.474 29.5976 177.714 30.1013C178.953 30.621 180.248 30.9648 181.559 31.2766C182.207 31.4445 182.862 31.6044 183.518 31.7323C184.174 31.8682 184.821 32.0281 185.477 32.132C195.95 34.1068 206.488 33.731 216.138 31.3725C218.56 30.8049 220.919 30.0933 223.061 28.958C225.18 27.8387 227.155 26.2637 228.106 24.105C228.562 23.0337 228.786 21.8584 228.674 20.7071C228.57 19.5558 228.17 18.4445 227.603 17.4452C226.459 15.4304 224.62 13.9273 222.614 12.88C220.607 11.8167 218.44 11.1211 216.314 10.4655C214.179 9.8019 212.052 9.23426 209.926 8.77854C205.672 7.85111 201.411 7.43537 197.301 7.73918C193.192 8.043 189.266 9.1703 185.845 11.0012C182.431 12.832 179.536 15.4224 177.634 18.5165L177.586 18.3326C182.583 21.3227 188.043 22.8098 193.216 23.1536C198.405 23.5134 203.322 22.6819 207.583 21.1309C209.734 20.4033 211.692 19.324 213.132 17.7969C213.827 17.0294 214.379 16.126 214.571 15.1506C214.739 14.1832 214.595 13.1598 214.107 12.3443C213.643 11.5128 212.9 10.8972 212.116 10.4255C211.325 9.9618 210.477 9.642 209.638 9.41015C208.798 9.1703 207.951 9.03438 207.119 8.94643C206.296 8.8345 205.48 8.77854 204.697 8.73856C198.357 8.47473 193.584 10.0178 190.586 11.273C189.067 11.9046 187.971 12.5042 187.244 12.912C186.492 13.3277 186.116 13.5356 186.116 13.5356Z" fill="#263238"/>
</svg>
