<svg width="293" height="227" viewBox="0 0 293 227" fill="none" xmlns="http://www.w3.org/2000/svg">
<path d="M261.982 114.26C267.889 111.215 274.851 110.819 281.41 111.904C284.932 112.485 288.608 113.539 291.005 116.182C293.403 118.825 293.857 123.479 291.101 125.751C289.465 127.105 287.176 127.309 285.047 127.284C279.914 127.226 274.211 126.32 270.107 129.41C267.767 131.172 266.207 134.096 263.407 134.964C260.671 135.813 257.577 134.198 256.126 131.727C254.675 129.256 254.623 126.173 255.301 123.389C255.314 123.396 256.03 117.331 261.982 114.26Z" fill="#EBEBEB"/>
<path d="M248.441 88.1614C252.053 93.3134 259.079 91.6089 262.333 88.4615C265.587 85.314 266.968 80.7557 268.221 76.4081C271.085 66.4743 273.968 56.049 271.839 45.93C271.2 42.9039 270.069 39.8906 267.94 37.6434C265.811 35.4025 262.538 34.0618 259.546 34.8535C256.004 35.7856 253.805 39.2522 252.213 42.5464C247.54 52.2312 245.06 62.9694 245.028 73.7204C245.015 78.7447 245.603 84.0117 248.441 88.1614Z" fill="#EBEBEB"/>
<path d="M238.52 95.5543C242.445 90.9066 243.186 84.1202 241.441 78.2978C239.696 72.4691 235.751 67.515 231.206 63.4674C225.874 58.7239 219.609 55.0339 212.878 52.6653C210.225 51.7333 207.431 50.9991 204.631 51.2672C201.831 51.5354 199.018 52.959 197.714 55.4489C195.783 59.1261 197.637 63.5823 199.631 67.2149C203.154 73.6182 207.188 79.747 211.669 85.5247C215.275 90.1724 219.411 94.7563 224.909 96.8567C230.407 98.957 236.122 98.7081 239.037 94.9031" fill="#EBEBEB"/>
<path d="M248.198 165.914C248.269 165.921 248.377 165.084 248.525 163.571C248.691 161.867 248.902 159.728 249.145 157.181C249.445 154.493 249.835 151.288 250.583 147.802C251.331 144.323 252.494 140.556 253.997 136.739C255.55 132.94 257.443 129.486 259.655 126.728C261.854 123.957 264.405 121.946 266.808 120.791C269.199 119.61 271.347 119.131 272.83 118.92C274.326 118.767 275.164 118.652 275.164 118.582C275.164 118.518 274.326 118.505 272.786 118.544C271.264 118.646 269.027 119.029 266.501 120.178C263.97 121.302 261.259 123.338 258.958 126.166C256.637 128.988 254.674 132.512 253.095 136.381C251.568 140.269 250.423 144.074 249.707 147.63C248.998 151.173 248.672 154.41 248.461 157.123C248.256 159.837 248.179 162.033 248.141 163.552C248.115 165.072 248.128 165.908 248.198 165.914Z" fill="#E0E0E0"/>
<path d="M248.64 160.999C248.672 160.999 248.691 160.622 248.704 159.913C248.704 159.096 248.697 158.068 248.697 156.804C248.691 154.11 248.691 150.203 248.838 145.383C249.074 135.743 249.905 125.368 251.51 110.742C253.032 96.9907 255.071 80.9856 257.225 70.5794C257.686 68.2108 258.152 66.0849 258.587 64.2207C259.002 62.3501 259.36 60.7413 259.706 59.439C260 58.2132 260.243 57.2109 260.435 56.4192C260.588 55.7234 260.658 55.3531 260.626 55.3467C260.594 55.3403 260.466 55.6914 260.249 56.3682C260.013 57.1534 259.712 58.1366 259.348 59.3432C258.945 60.6328 258.536 62.2352 258.069 64.0994C257.583 65.9572 257.065 68.0831 256.56 70.4453C254.432 79.8747 252.175 93.0517 250.551 107.716C248.94 122.374 248.218 135.717 248.154 145.383C248.096 150.216 248.198 154.129 248.32 156.823C248.397 158.087 248.461 159.115 248.512 159.932C248.563 160.628 248.608 160.999 248.64 160.999Z" fill="#E0E0E0"/>
<path d="M248.703 135.258C248.774 135.258 248.761 134.102 248.678 132.008C248.556 129.92 248.269 126.907 247.681 123.211C247.054 119.527 246.185 115.147 244.817 110.398C244.222 108.227 242.828 103.017 239.453 95.2351C235.003 84.6884 228.956 76.0698 223.694 70.7326C222.461 69.3153 221.086 68.2938 219.987 67.2915C219.418 66.8127 218.913 66.3339 218.401 65.9508C217.883 65.5933 217.41 65.2677 216.963 64.9613C215.23 63.7802 214.258 63.1546 214.227 63.212C214.073 63.4227 218.107 65.7912 223.196 71.205C228.265 76.606 234.147 85.1672 238.564 95.6245C241.026 101.294 242.745 106.356 243.96 110.646C245.366 115.358 246.3 119.686 247.009 123.332C247.681 126.99 248.071 129.971 248.301 132.04C248.499 134.115 248.64 135.258 248.703 135.258Z" fill="#E0E0E0"/>
<path d="M223.79 180.662L226.373 215.998H271.827L274.409 180.662H223.79Z" fill="#E0E0E0"/>
<path d="M279.831 166.732H219.398V180.662H279.831V166.732Z" fill="#E0E0E0"/>
<path d="M219.398 214.645V218.501H222.237H278.833V214.645H219.398Z" fill="#EBEBEB"/>
<path d="M225.024 225.3L222.237 218.501H276.672L273.425 225.3H225.024Z" fill="#E0E0E0"/>
<path d="M273.566 192.211C273.578 192.217 273.502 192.332 273.355 192.536C273.176 192.773 272.952 193.073 272.677 193.437C272.031 194.26 271.143 195.396 270.03 196.82L269.915 196.973L269.8 196.814C268.138 194.515 265.913 191.445 263.292 187.831H263.669C261.732 190.57 259.578 193.615 257.264 196.89L257.065 197.171L256.842 196.903C254.476 194.094 251.913 191.042 249.247 187.876L249.682 187.87C249.547 188.036 249.407 188.214 249.266 188.393C246.913 191.343 244.631 194.196 242.477 196.897L242.253 197.178L242.042 196.884C239.734 193.628 237.58 190.583 235.636 187.831L236.007 187.85C232.849 191.445 230.17 194.49 228.118 196.827L227.978 196.986L227.869 196.807C226.827 195.064 226.002 193.673 225.395 192.664C225.139 192.217 224.928 191.853 224.762 191.56C224.621 191.304 224.557 191.177 224.57 191.164C224.583 191.157 224.673 191.279 224.832 191.515C225.018 191.796 225.248 192.147 225.536 192.575C226.168 193.564 227.038 194.93 228.131 196.648L227.882 196.629C229.902 194.26 232.542 191.177 235.649 187.538L235.847 187.308L236.026 187.557C237.989 190.296 240.163 193.328 242.49 196.571L242.055 196.558C244.203 193.858 246.479 190.998 248.831 188.042C248.972 187.863 249.119 187.684 249.247 187.518L249.464 187.25L249.688 187.518C252.347 190.691 254.905 193.749 257.264 196.558L256.835 196.578C259.175 193.322 261.349 190.289 263.305 187.569L263.497 187.308L263.682 187.569C266.246 191.221 268.419 194.33 270.049 196.654L269.819 196.648C270.983 195.256 271.903 194.152 272.575 193.347C272.875 193.002 273.118 192.722 273.31 192.492C273.463 192.294 273.559 192.198 273.566 192.211Z" fill="#F5F5F5"/>
<path d="M275.042 180.426C275.042 180.579 263.65 180.706 249.605 180.706C235.553 180.706 224.167 180.579 224.167 180.426C224.167 180.272 235.553 180.145 249.605 180.145C263.657 180.145 275.042 180.272 275.042 180.426Z" fill="#F5F5F5"/>
<path d="M277.337 218.884C277.337 219.037 264.961 219.165 249.694 219.165C234.422 219.165 222.045 219.037 222.045 218.884C222.045 218.731 234.422 218.603 249.694 218.603C264.961 218.603 277.337 218.731 277.337 218.884Z" fill="#F5F5F5"/>
<path d="M113.398 84.8033L108.283 87.5421L96.9677 96.2438C96.9677 96.2438 62.2989 100.84 60.9692 101.836C59.6395 102.832 42.3978 111.01 40.0644 121.978C37.7374 132.946 32.9427 204.526 32.9427 204.526L39.2333 225.677L165.5 225.875L195.112 225.453C195.112 225.453 206.491 198.914 206.491 191.604C206.491 184.288 203.16 129.442 203.16 129.442L167.648 104.435L113.398 84.8033Z" fill="#F6147A"/>
<path d="M96.6417 95.7267C96.648 95.733 96.5905 95.8352 96.4627 96.0203C96.3156 96.2374 96.1302 96.5055 95.9065 96.8311C95.4078 97.5206 94.7366 98.5548 93.9438 99.8508C93.5603 100.508 93.1256 101.217 92.7228 102.015C92.2945 102.8 91.8853 103.662 91.4634 104.569C90.6451 106.401 89.846 108.463 89.1683 110.678C87.8322 115.122 87.1418 119.278 86.6815 122.285C86.4705 123.753 86.2979 124.966 86.1701 125.854C86.1125 126.243 86.0614 126.562 86.023 126.824C85.9847 127.047 85.9591 127.162 85.9527 127.162C85.9399 127.162 85.9463 127.041 85.9591 126.818C85.9783 126.556 86.0102 126.23 86.0422 125.841C86.1189 124.992 86.2532 123.766 86.4514 122.253C86.8541 119.233 87.5062 115.052 88.8551 110.583C89.5391 108.355 90.3446 106.28 91.1885 104.441C91.6232 103.528 92.0388 102.666 92.4863 101.881C92.9018 101.083 93.3493 100.374 93.7457 99.7231C94.564 98.4335 95.2736 97.4185 95.8042 96.7481C96.0471 96.4353 96.2517 96.1799 96.4115 95.9756C96.5522 95.8096 96.6353 95.7203 96.6417 95.7267Z" fill="black"/>
<g opacity="0.3">
<g opacity="0.3">
<path opacity="0.3" d="M97.428 116.769C97.217 116.099 96.9485 115.332 96.2901 115.071C95.7722 114.866 95.9832 115.198 95.4654 115.409C90.6707 117.382 88.3565 121.812 86.3235 126.798L86.4386 126.677C86.1381 127.443 86.4514 128.541 87.2249 128.988C88.3053 129.62 89.6926 129.276 90.8049 128.701C91.9173 128.126 92.9338 127.328 94.1421 127.022C96.7695 126.352 99.3779 128.146 101.232 130.118C103.086 132.097 104.754 134.447 107.279 135.423C102.9 129.882 99.5441 123.523 97.428 116.769Z" fill="black"/>
</g>
</g>
<path d="M85.9527 127.169C85.9527 127.169 86.5217 125.643 87.9793 123.108C88.7145 121.844 89.6862 120.331 91.0223 118.735C91.7064 117.95 92.4799 117.139 93.4133 116.405C94.353 115.69 95.4654 115.032 96.7887 114.79L96.8846 114.771L96.923 114.866C97.7285 116.954 98.5723 119.233 99.5441 121.634C100.522 124.028 101.641 126.549 103.118 129.027C104.582 131.504 106.41 133.923 108.616 136.126C110.815 138.328 113.372 140.307 116.146 142.089C117.067 142.638 117.968 143.212 118.889 143.723C119.822 144.221 120.743 144.712 121.657 145.198L121.491 145.21C123.057 144.132 124.598 143.065 126.107 142.031C126.861 141.514 127.609 140.997 128.344 140.493C129.086 139.988 129.808 139.484 130.492 138.948C133.235 136.809 135.606 134.491 137.652 132.225L137.665 132.212L137.678 132.206C140.523 130.022 142.728 127.526 144.243 125.049C145.79 122.585 146.679 120.184 147.203 118.173C147.721 116.156 147.887 114.522 147.958 113.411C147.996 112.855 147.983 112.428 148.002 112.14C148.009 111.853 148.028 111.706 148.028 111.706C148.028 111.706 148.041 111.853 148.047 112.14C148.047 112.428 148.073 112.855 148.047 113.417C148.002 114.534 147.868 116.182 147.369 118.218C146.864 120.248 145.995 122.681 144.448 125.17C142.933 127.679 140.721 130.214 137.857 132.429L137.876 132.41C135.824 134.708 133.452 137.032 130.69 139.197C130 139.739 129.278 140.25 128.536 140.754C127.801 141.265 127.053 141.782 126.298 142.299C124.79 143.34 123.249 144.406 121.683 145.491L121.6 145.549L121.517 145.504C120.596 145.019 119.669 144.521 118.729 144.023C117.802 143.512 116.894 142.931 115.967 142.376C113.18 140.588 110.604 138.59 108.385 136.362C106.161 134.14 104.326 131.695 102.856 129.193C101.372 126.696 100.254 124.155 99.2883 121.749C98.323 119.335 97.4919 117.05 96.6992 114.962L96.8335 115.039C95.5741 115.262 94.4809 115.894 93.5539 116.59C92.6333 117.305 91.8662 118.097 91.1757 118.869C89.8332 120.44 88.8551 121.934 88.1007 123.179C87.3528 124.43 86.8286 125.439 86.4833 126.122C86.3171 126.454 86.1893 126.715 86.0934 126.907C86.0103 127.079 85.9591 127.169 85.9527 127.169Z" fill="#070707"/>
<path d="M157.406 111.451C157.406 111.451 157.617 115.179 156.946 121.187C156.607 124.187 156 127.75 154.996 131.638C153.999 135.526 152.573 139.72 150.764 144.01L150.521 144.585L150.444 143.959C150.4 143.589 150.361 143.18 150.304 142.778C149.984 140.422 149.428 138.15 148.693 136.036C148.322 134.977 147.913 133.955 147.459 132.972C147.235 132.48 146.999 132.002 146.756 131.529C146.506 131.057 146.283 130.597 145.976 130.195C145.675 129.799 145.311 129.442 144.876 129.282C144.448 129.116 143.975 129.224 143.617 129.518C143.259 129.805 142.958 130.201 142.639 130.552C142.325 130.91 142.019 131.261 141.712 131.612C140.497 132.997 139.365 134.287 138.33 135.468C136.265 137.805 134.59 139.701 133.414 141.035C132.838 141.674 132.391 142.178 132.065 142.535C131.918 142.695 131.803 142.823 131.707 142.919C131.624 143.002 131.579 143.046 131.579 143.04C131.573 143.033 131.611 142.989 131.681 142.893C131.771 142.784 131.879 142.65 132.014 142.484C132.327 142.114 132.762 141.597 133.318 140.939C134.475 139.592 136.124 137.671 138.151 135.309C139.174 134.121 140.299 132.819 141.501 131.427C141.801 131.076 142.108 130.725 142.421 130.361C142.741 130.01 143.022 129.614 143.431 129.282C143.821 128.944 144.448 128.784 144.972 128.995C145.496 129.193 145.886 129.588 146.212 130.003C146.545 130.425 146.781 130.91 147.031 131.376C147.274 131.848 147.516 132.334 147.74 132.825C148.194 133.815 148.616 134.849 148.993 135.915C149.741 138.054 150.304 140.339 150.623 142.721C150.687 143.129 150.719 143.538 150.764 143.914L150.444 143.863C152.247 139.592 153.679 135.411 154.689 131.548C155.706 127.679 156.339 124.136 156.703 121.148C157.074 118.161 157.221 115.728 157.291 114.049C157.336 113.213 157.336 112.555 157.355 112.115C157.362 111.911 157.374 111.745 157.374 111.611C157.4 111.508 157.406 111.451 157.406 111.451Z" fill="#070707"/>
<path d="M109.728 93.8114C109.734 93.8178 109.696 93.8561 109.632 93.9391C109.549 94.0285 109.447 94.1434 109.325 94.2838C109.038 94.5711 108.673 95.0435 108.2 95.65C107.286 96.8822 106.135 98.8038 105.138 101.364C104.115 103.911 103.265 107.097 102.843 110.698C102.446 114.298 102.491 118.333 103.354 122.432C103.763 124.487 104.39 126.441 105.144 128.26C105.867 130.099 106.806 131.759 107.772 133.298C109.754 136.336 112.055 138.711 114.165 140.461C115.194 141.374 116.242 142.044 117.118 142.701C118.052 143.276 118.831 143.8 119.503 144.176C120.161 144.534 120.679 144.821 121.056 145.032C121.216 145.127 121.35 145.198 121.459 145.262C121.548 145.313 121.593 145.345 121.593 145.351C121.593 145.357 121.542 145.338 121.446 145.293C121.338 145.242 121.197 145.172 121.031 145.096C120.641 144.898 120.11 144.636 119.445 144.297C118.761 143.934 117.968 143.423 117.022 142.861C116.134 142.223 115.066 141.552 114.018 140.652C111.876 138.909 109.53 136.534 107.516 133.476C106.538 131.931 105.585 130.252 104.844 128.401C104.083 126.562 103.444 124.59 103.035 122.515C102.159 118.378 102.127 114.305 102.542 110.678C102.983 107.046 103.866 103.847 104.92 101.294C105.956 98.7272 107.152 96.8056 108.098 95.5862C108.59 94.9861 108.974 94.5264 109.274 94.2519C109.408 94.1242 109.517 94.0157 109.607 93.9263C109.683 93.8433 109.722 93.805 109.728 93.8114Z" fill="#070707"/>
<path d="M55.3371 155.151C55.3435 155.144 55.3882 155.208 55.4649 155.336C55.5544 155.495 55.6695 155.687 55.8101 155.929L55.7142 155.961C55.2603 153.816 54.0137 147.241 52.6073 139.458C51.757 134.664 50.9899 130.329 50.4273 127.137C50.1716 125.592 49.9606 124.328 49.8008 123.396C49.7369 122.981 49.6857 122.642 49.6474 122.374C49.6154 122.138 49.6026 122.017 49.6154 122.017C49.6282 122.017 49.6602 122.132 49.7113 122.361C49.7688 122.63 49.8392 122.962 49.9287 123.37C50.1077 124.296 50.357 125.554 50.6574 127.092C51.2456 130.284 52.0511 134.613 52.9333 139.394C54.3398 147.17 55.4905 153.772 55.8101 155.936L55.8613 156.261L55.7206 155.968C55.5992 155.719 55.5033 155.515 55.4202 155.355C55.3562 155.221 55.3307 155.157 55.3371 155.151Z" fill="black"/>
<path d="M53.7964 153.842C53.7133 153.88 52.1022 150.643 50.2035 146.615C48.2985 142.587 46.8281 139.286 46.9112 139.248C46.9943 139.209 48.6053 142.44 50.504 146.474C52.4027 150.503 53.8795 153.804 53.7964 153.842Z" fill="black"/>
<g opacity="0.3">
<g opacity="0.3">
<path opacity="0.3" d="M53.1379 224.03C57.1463 226.041 66.4352 222.491 69.8106 218.067C73.1861 213.642 74.1642 207.89 74.8994 202.374C76.0054 194.062 76.7917 185.705 77.2648 177.336C84.1435 182.36 92.7612 184.965 101.27 184.575C106.691 184.333 112.873 182.181 114.548 177.023C116.21 171.922 112.637 166.68 108.922 162.805C105.387 159.115 101.532 155.738 97.4088 152.718C94.6982 150.739 91.7383 148.862 88.4012 148.498C84.802 148.102 81.158 149.577 78.4219 151.946C75.6857 154.314 73.7742 157.506 72.3742 160.839C68.0973 171.015 68.3275 182.417 67.458 193.417C66.5822 204.424 65.4187 215.819 55.6567 222.983" fill="black"/>
</g>
</g>
<path d="M53.4 224.074C53.4 224.068 53.4895 224.023 53.6749 223.94C53.8795 223.851 54.148 223.736 54.4804 223.595C55.1517 223.219 56.1426 222.67 57.2166 221.718C59.3966 219.867 62.088 216.713 64.6004 212.525L64.5812 212.576C65.163 208.203 65.847 203.096 66.5758 197.669C67.7457 189.063 68.7878 181.275 69.6188 175.644C70.1367 172.867 70.5586 170.607 70.8527 169.017C70.9997 168.257 71.1212 167.657 71.2043 167.217C71.2426 167.025 71.2746 166.872 71.3066 166.751C71.3321 166.649 71.3449 166.591 71.3513 166.591C71.3577 166.591 71.3513 166.649 71.3385 166.757C71.3194 166.885 71.3002 167.038 71.2682 167.229C71.1979 167.67 71.102 168.276 70.9805 169.036C70.712 170.632 70.3221 172.892 69.849 175.676C69.0882 181.339 68.0526 189.114 66.9019 197.714C66.1603 203.14 65.4635 208.241 64.8689 212.615L64.8625 212.647L64.8497 212.672C62.2862 216.879 59.5564 220.02 57.3189 221.853C56.2193 222.791 55.1964 223.327 54.5124 223.678C54.1544 223.825 53.8667 223.921 53.6813 223.985C53.5023 224.049 53.4 224.081 53.4 224.074Z" fill="#263238"/>
<path d="M114.932 225.46C114.925 225.46 114.906 225.396 114.874 225.255C114.836 225.102 114.791 224.904 114.734 224.655C114.625 224.125 114.408 223.353 114.241 222.338C113.864 220.32 113.474 217.358 113.359 213.681C113.257 210.004 113.429 205.618 114.05 200.798C114.638 195.971 115.616 190.717 116.754 185.233C117.847 179.73 119.221 174.565 120.327 169.847C121.459 165.129 122.181 160.813 122.38 157.155C122.571 153.497 122.341 150.528 122.06 148.498C121.951 147.477 121.772 146.698 121.702 146.162C121.664 145.906 121.632 145.708 121.612 145.555C121.593 145.415 121.587 145.345 121.593 145.345C121.6 145.345 121.619 145.415 121.644 145.549C121.676 145.702 121.715 145.9 121.772 146.149C121.862 146.679 122.06 147.458 122.188 148.479C122.507 150.509 122.776 153.491 122.61 157.168C122.443 160.845 121.74 165.193 120.621 169.917C119.522 174.654 118.16 179.806 117.073 185.303C115.935 190.787 114.951 196.029 114.35 200.842C113.717 205.649 113.519 210.023 113.589 213.681C113.672 217.345 114.024 220.295 114.363 222.319C114.51 223.334 114.702 224.106 114.791 224.642C114.836 224.891 114.874 225.096 114.9 225.249C114.932 225.389 114.938 225.46 114.932 225.46Z" fill="#070707"/>
<path d="M125.691 153.472C125.608 153.421 126.714 151.658 127.941 149.418C129.175 147.177 130.057 145.306 130.147 145.345C130.185 145.364 130.019 145.855 129.687 146.628C129.354 147.4 128.849 148.447 128.235 149.577C127.615 150.701 127.002 151.69 126.529 152.386C126.055 153.089 125.729 153.497 125.691 153.472Z" fill="#263238"/>
<g opacity="0.3">
<g opacity="0.3">
<path opacity="0.3" d="M127.756 150.822C131.087 146.928 134.699 143.276 138.56 139.892C139.615 138.967 140.759 138.028 142.146 137.798C143.834 137.517 145.554 138.386 146.724 139.637C147.894 140.888 148.622 142.472 149.332 144.029C151.007 139.912 149.268 135.283 147.542 131.184C146.979 129.85 146.008 128.273 144.576 128.484C143.815 128.599 143.24 129.218 142.735 129.799C137.198 136.215 132.071 142.995 127.398 150.062" fill="black"/>
</g>
</g>
<g opacity="0.3">
<g opacity="0.3">
<path opacity="0.3" d="M183.962 120.408L184.199 118.384C181.763 118.614 178.771 118.901 176.828 120.382C174.559 122.112 173.663 125.056 172.903 127.801C171.164 134.051 176.093 166.195 175.843 172.675C178.004 171.762 179.519 157.966 179.909 155.655C180.856 150.03 178.944 146.519 179.519 144.949C180.101 143.385 180.082 141.674 180.133 140.001C180.338 132.544 181.079 127.296 183.962 120.408Z" fill="black"/>
</g>
</g>
<path d="M152.183 17.2395C149.089 13.409 150.099 7.28659 153.647 3.86467C157.189 0.442751 162.578 -0.546797 167.437 0.270378C174.475 1.45145 180.804 6.22682 183.873 12.6557C185.529 16.1351 186.437 20.2401 189.48 22.6086C192.152 24.6899 195.834 24.8686 198.877 26.3561C202.956 28.3544 205.59 32.619 206.523 37.0624C207.456 41.5058 206.894 46.1216 205.954 50.565C205.091 54.6381 203.94 59.0431 205.692 62.8226C207.399 66.5063 211.394 68.5173 214.022 71.6136C218.964 77.4424 217.845 87.3698 211.721 91.9536C209.771 93.4156 207.303 94.5264 206.37 96.78C205.519 98.8357 206.242 101.166 206.203 103.394C206.088 109.121 199.772 113.826 194.242 112.306C191.449 111.54 188.879 109.478 186.015 109.874C183.163 110.263 181.265 112.894 178.95 114.598C174.399 117.95 167.418 117.433 163.409 113.449C161.728 111.783 160.379 109.51 158.09 108.904C155.808 108.297 153.404 109.606 151.065 109.293C148.002 108.878 145.989 105.839 145.081 102.883C144.173 99.9274 143.93 96.729 142.402 94.0412C140.401 90.5235 136.585 88.5381 133.382 86.061C126.311 80.6025 121.772 71.9966 121.267 63.0843C120.762 54.172 124.297 45.1065 130.703 38.8819" fill="#263238"/>
<path d="M109.306 93.8242C103.188 100.828 100.778 110.889 103.054 119.897C105.33 128.905 112.88 142.076 121.587 145.345C127.238 141.208 134.501 135.43 139.768 130.82C143.176 127.839 144.985 123.472 146.673 119.272C147.644 116.846 148.635 114.228 148.028 111.687C147.58 109.817 146.308 108.259 144.972 106.873C136.399 97.9739 123.338 93.6199 111.128 95.599" fill="#EF9D78"/>
<path d="M135.178 28.9673C138.419 22.4043 145.816 19.0016 152.912 20.8083L174.725 26.3625C185.625 29.8738 194.159 46.7153 187.734 61.4691C182.658 73.1203 177.461 87.7592 172.251 95.8033C161.766 111.974 147.433 108.278 147.433 108.278L139.698 125.509L108.072 95.8926L135.178 28.9673Z" fill="#EF9D78"/>
<path d="M172.001 66.0274C172.41 65.8742 173.484 67.9108 175.85 69.0472C178.202 70.2155 180.523 69.8388 180.645 70.2538C180.708 70.4453 180.178 70.8283 179.155 71.0071C178.145 71.1922 176.617 71.1156 175.147 70.3942C173.676 69.6728 172.698 68.53 172.257 67.6299C171.797 66.7297 171.803 66.0913 172.001 66.0274Z" fill="#263238"/>
<path d="M147.305 54.7977C147.772 54.7147 148.827 56.9811 151.371 58.5516C153.897 60.154 156.492 60.1731 156.594 60.62C156.652 60.8243 156.045 61.1244 154.9 61.1308C153.775 61.1499 152.087 60.7988 150.508 59.8093C148.929 58.8197 147.919 57.4854 147.484 56.4895C147.037 55.4808 147.082 54.8296 147.305 54.7977Z" fill="#263238"/>
<path d="M157.771 78.8852C157.822 78.7447 159.426 79.1469 161.99 79.9067C162.629 80.1173 163.269 80.2514 163.556 79.8747C163.895 79.4981 163.933 78.7192 163.953 77.8765C164.036 76.14 164.119 74.3141 164.208 72.4052C164.637 64.6421 165.238 58.3728 165.551 58.392C165.864 58.4111 165.768 64.7187 165.34 72.4818C165.218 74.3907 165.103 76.2102 164.995 77.9467C164.918 78.7447 164.969 79.7151 164.247 80.494C163.876 80.877 163.281 81.0111 162.84 80.9409C162.393 80.8834 162.048 80.743 161.734 80.6217C159.235 79.6832 157.72 79.0256 157.771 78.8852Z" fill="#263238"/>
<path d="M147.401 108.323C147.401 108.323 134.769 103.592 126.254 91.4875C126.254 91.4875 126.733 106.267 145.464 112.658L147.401 108.323Z" fill="#D37A57"/>
<path d="M149.287 46.6131C149.69 45.9683 152.19 46.843 155.284 47.1175C158.372 47.4559 160.993 47.0856 161.261 47.7942C161.376 48.1326 160.814 48.7008 159.689 49.1668C158.57 49.6329 156.876 49.9457 155.022 49.7669C153.168 49.5818 151.57 48.9434 150.566 48.2667C149.549 47.5899 149.102 46.926 149.287 46.6131Z" fill="#263238"/>
<path d="M177.154 53.6421C177.96 53.6358 178.957 55.6212 180.683 57.5237C182.345 59.4773 184.199 60.7286 184.078 61.5202C184.001 61.8841 183.33 62.0437 182.275 61.7309C181.226 61.4245 179.826 60.5945 178.656 59.2666C177.493 57.9451 176.854 56.4512 176.694 55.385C176.528 54.2997 176.777 53.6613 177.154 53.6421Z" fill="#263238"/>
<path d="M152.228 85.5566C152.228 85.5566 153.711 84.7842 153.027 81.9368C152.337 79.0959 148.718 76.5167 146.423 78.8533C146.423 78.8533 144.109 79.032 145.017 81.7006C145.931 84.3692 151.205 88.1359 152.19 85.9908" fill="#D37A57"/>
<path d="M151.365 87.7273C150.943 87.657 151.589 84.8799 149.664 82.3518C147.753 79.8236 144.716 79.447 144.787 79.0512C144.787 78.866 145.573 78.6681 146.832 78.9235C148.066 79.1661 149.767 79.9769 150.943 81.5218C152.113 83.0668 152.362 84.8224 152.19 85.9844C152.023 87.1718 151.55 87.7911 151.365 87.7273Z" fill="#263238"/>
<path d="M116.53 19.8954C113.142 22.4937 111.122 26.7839 111.288 31.0485C111.384 33.4362 111.965 36.2516 110.207 37.8668C108.417 39.5139 105.592 38.6265 103.156 38.6393C98.9175 38.6585 94.9859 42.1825 94.5 46.3897C94.3274 47.8964 94.5256 49.5307 93.7521 50.8395C92.9529 52.1993 91.3419 52.8122 89.993 53.6294C86.6304 55.6659 84.4887 59.5539 84.5591 63.4802C84.6358 67.4064 86.9308 71.2114 90.3702 73.1139C91.9365 73.9821 93.7649 74.5184 94.9092 75.8974C96.2197 77.4743 96.2709 79.7087 96.9102 81.6495C98.1376 85.3779 101.909 88.1231 105.841 88.1486C109.773 88.1742 113.576 85.4928 114.861 81.7772" fill="#263238"/>
<path d="M151.883 13.7857C150.604 17.5141 151.071 21.8042 153.123 25.1751C155.182 28.5395 158.781 30.9208 162.687 31.4954C165.717 31.9423 169.335 31.5593 171.292 33.9086C173.35 36.3857 172.129 40.3375 173.759 43.1146C176.086 47.0856 180.05 50.2521 183.815 52.9016C186.718 54.9509 183.4 60.652 184.666 63.9717C185.931 67.2915 191.142 74.8632 194.696 74.9972C195.476 72.0286 199.9 58.9921 199.977 55.9213C200.053 52.8505 199.363 49.6648 197.458 47.258C196.416 45.9364 195.041 44.883 194.14 43.4594C192.19 40.3886 192.849 36.4176 192.216 32.8425C191.397 28.2331 188.201 24.1089 183.937 22.1617C180.389 20.5402 176.227 20.3614 172.947 18.2482C170.525 16.6841 168.792 14.1879 166.28 12.7706C161.389 10.0126 155.265 12.113 150.208 14.5646" fill="#263238"/>
<path d="M128.338 50.8969C127.833 50.5586 124.483 53.0931 127.788 55.1169C133.586 58.6601 138.566 46.6961 138.349 42.7188C141.303 41.4739 144.294 40.2098 146.89 38.2371C149.492 36.2644 153.379 29.8036 154.076 26.5413C156.294 27.4415 167.008 27.5181 166.081 26.8796C163.965 25.4177 159.689 22.283 159.12 19.8251C157.886 14.4943 154.095 9.85942 149.089 8.46128C144.083 7.06953 138.049 9.34869 135.287 14.1943C129.322 12.228 122.252 13.9964 117.495 18.6441C112.739 23.2917 110.482 30.6335 111.818 37.1199C112.17 38.8181 112.745 40.5929 112.196 42.2783C111.518 44.3659 109.421 45.4895 107.759 46.843C103.207 50.5267 101.251 57.0321 101.814 62.9056C102.376 68.779 103.38 71.1156 106.289 73.2416C111.985 77.3977 100.145 88.0082 110.751 91.5961" fill="#263238"/>
<path d="M207.501 91.4556C207.476 91.4109 207.878 91.1939 208.498 90.6065C209.112 90.0256 209.994 89.0871 210.634 87.606C211.286 86.1568 211.733 84.133 211.235 81.9113C210.736 79.6896 209.055 77.5637 206.804 75.7569C204.618 73.88 201.748 72.2073 199.715 69.2515C197.656 66.2828 197.317 62.248 197.969 58.4175C198.609 54.5295 200.232 50.7501 201.274 46.7281C201.799 44.717 202.125 42.623 202.054 40.5035C201.984 38.3967 201.517 36.2389 200.386 34.413C199.261 32.5871 197.528 31.2209 195.63 30.2952C193.724 29.3631 191.666 28.8204 189.62 28.4693C187.568 28.1246 185.471 27.933 183.483 27.2946C181.501 26.7073 179.609 25.3985 178.707 23.5407C177.78 21.7148 177.576 19.7804 177.167 18.0248C176.809 16.25 176.138 14.6539 175.102 13.3324C173.069 10.6574 170.058 9.17631 167.271 8.65281C164.438 8.14207 161.792 8.69111 159.689 9.56574C157.579 10.4659 155.968 11.6661 154.772 12.7578C152.407 14.9923 151.621 16.6841 151.525 16.6139C151.512 16.6075 151.557 16.5053 151.665 16.3074C151.774 16.1159 151.915 15.8159 152.158 15.4583C152.612 14.7242 153.372 13.6835 154.542 12.5216C155.725 11.3725 157.336 10.102 159.497 9.138C161.645 8.19953 164.394 7.57388 167.366 8.07185C170.288 8.58258 173.459 10.0892 175.645 12.9111C176.758 14.29 177.506 16.0521 177.883 17.8652C178.305 19.6591 178.535 21.5489 179.385 23.1896C180.203 24.8431 181.84 25.9795 183.72 26.5413C185.599 27.1414 187.651 27.3265 189.748 27.6713C191.845 28.0288 193.98 28.5842 195.988 29.561C197.989 30.525 199.868 31.9934 201.089 33.9852C202.316 35.9707 202.809 38.2754 202.879 40.4907C202.949 42.7124 202.598 44.8958 202.061 46.9451C200.98 51.0565 199.363 54.7977 198.724 58.5579C198.072 62.2735 198.391 66.0977 200.284 68.8812C202.157 71.6774 204.976 73.3884 207.175 75.3164C209.438 77.1806 211.196 79.4406 211.682 81.8219C212.168 84.1777 211.644 86.2717 210.921 87.7528C210.212 89.2659 209.259 90.198 208.601 90.747C207.936 91.2896 207.501 91.4556 207.501 91.4556Z" fill="#455A64"/>
<path d="M187.894 52.908C187.971 52.9399 187.581 53.8209 187.191 55.4935C186.82 57.1598 186.468 59.6624 186.967 62.6821C187.21 64.1824 187.658 65.8104 188.418 67.4256C189.147 69.0663 190.272 70.5921 191.551 72.2137C192.171 73.0373 192.797 73.9247 193.258 74.9525C193.731 75.974 193.961 77.1678 193.859 78.3425C193.673 80.7174 192.503 82.8242 191.634 84.9693C190.72 87.0952 190.208 89.3744 191.046 91.3471C191.826 93.3198 193.405 94.8201 194.843 96.2565C196.301 97.6866 197.707 99.1294 198.596 100.808C199.018 101.651 199.312 102.551 199.401 103.432C199.459 104.313 199.427 105.169 199.21 105.948C198.417 109.114 196.205 110.921 194.639 111.642C193.82 111.987 193.143 112.14 192.682 112.179C192.222 112.211 191.979 112.211 191.979 112.179C191.96 112.077 192.97 112.115 194.492 111.349C195.949 110.576 197.969 108.782 198.634 105.814C198.967 104.358 198.826 102.673 197.982 101.134C197.138 99.5891 195.777 98.2229 194.3 96.8056C192.855 95.3819 191.174 93.8497 190.279 91.6408C189.838 90.5491 189.69 89.3042 189.85 88.1039C190.004 86.9037 190.407 85.7546 190.854 84.6501C191.755 82.4476 192.868 80.3982 193.04 78.2787C193.264 76.1464 192.139 74.2758 190.931 72.6734C189.697 71.071 188.508 69.4238 187.785 67.7129C187.025 66.0147 186.596 64.3293 186.385 62.7715C185.951 59.6433 186.405 57.0832 186.884 55.4106C187.127 54.5742 187.37 53.9358 187.568 53.5208C187.753 53.1059 187.869 52.8952 187.894 52.908Z" fill="#455A64"/>
<path d="M91.9748 72.9479C91.962 72.9607 91.8406 72.8713 91.6104 72.6798C91.3739 72.4946 91.0606 72.1818 90.6835 71.7413C89.9483 70.8603 88.9829 69.3664 88.561 67.2085C88.1327 65.1017 88.2989 62.1778 90.1273 59.6241C91.8853 57.1215 95.216 55.0403 99.1221 55.2254L98.7705 55.6915C98.0545 53.6868 97.5175 51.4396 97.6965 49.0519C97.8371 46.6898 98.9687 44.1616 101.117 42.6422C102.159 41.8697 103.482 41.3717 104.857 41.3653C106.25 41.3717 107.535 41.908 108.718 42.457C109.907 43.0061 111.07 43.6254 112.298 43.836C113.513 44.0531 114.772 43.7083 115.68 42.8337C117.041 41.5633 117.655 39.6672 117.777 37.8157C117.924 35.9388 117.745 34.0235 117.943 32.1147C118.333 28.2842 120.174 24.8559 122.654 22.4363C125.135 19.972 128.325 18.644 131.31 18.2418C134.315 17.8396 137.147 18.3057 139.436 19.2633L139.071 19.4038C140.082 17.3225 141.846 16.0329 143.47 15.369C145.113 14.6859 146.679 14.5901 147.9 14.7114C149.134 14.8391 150.022 15.2157 150.591 15.4903C151.148 15.8095 151.416 16.0074 151.403 16.0265C151.365 16.1351 150.272 15.2094 147.874 15.0178C146.698 14.9476 145.196 15.0881 143.642 15.7776C142.108 16.4479 140.478 17.6992 139.576 19.64L139.461 19.8826L139.212 19.7804C136.994 18.8994 134.264 18.4908 131.394 18.9122C128.536 19.3399 125.525 20.6295 123.179 22.9853C120.832 25.3027 119.1 28.5778 118.748 32.1977C118.563 34.0044 118.748 35.9069 118.601 37.886C118.473 39.8459 117.828 41.9782 116.242 43.4594C115.188 44.5 113.57 44.9405 112.157 44.666C110.738 44.417 109.536 43.753 108.366 43.2168C107.203 42.6741 106.026 42.1953 104.85 42.1889C103.674 42.1953 102.523 42.6103 101.583 43.2998C99.6463 44.666 98.6043 46.9132 98.4509 49.1221C98.2655 51.3438 98.7577 53.5144 99.4354 55.468L99.608 55.966L99.0838 55.934C95.4782 55.717 92.2945 57.6259 90.6004 59.9625C88.8359 62.331 88.6122 65.0954 88.9702 67.1383C89.3154 69.2323 90.1912 70.707 90.8625 71.6136C91.5337 72.5138 92.0068 72.9032 91.9748 72.9479Z" fill="#455A64"/>
<path d="M151.621 18.593C151.665 18.7398 150.374 18.5291 148.738 19.7102C147.101 20.8657 145.688 23.6556 145.273 27.2052L145.234 27.5117L144.934 27.4861C141.916 27.2372 138.1 28.4118 135.517 31.4124C134.897 32.1594 134.347 33.034 134.002 33.9597C133.676 34.9109 133.51 35.9643 133.35 37.0496C133.184 38.135 133.037 39.2586 132.691 40.395C132.397 41.5186 131.668 42.6933 130.678 43.4083C128.555 45.0618 125.953 45.3491 123.671 45.713C121.35 46.0258 119.17 46.4089 117.284 47.3665C113.487 49.2051 110.981 52.3972 109.888 55.3659C108.75 58.36 108.795 61.0478 109.018 62.8162C109.248 64.6038 109.626 65.5486 109.549 65.5742C109.523 65.5869 109.415 65.3571 109.242 64.9038C109.082 64.4505 108.859 63.7738 108.699 62.8673C108.373 61.0797 108.226 58.309 109.338 55.1616C110.412 52.0461 112.976 48.6497 116.952 46.677C118.921 45.6555 121.254 45.2278 123.556 44.9086C125.832 44.5447 128.306 44.2255 130.16 42.7635C131.988 41.4803 132.18 39.0607 132.538 36.9347C132.704 35.8494 132.877 34.7513 133.247 33.6979C133.65 32.6382 134.238 31.7316 134.922 30.9208C137.735 27.716 141.788 26.5541 144.985 26.8796L144.646 27.1605C145.157 23.4705 146.711 20.6104 148.527 19.4421C149.409 18.8547 150.233 18.6568 150.777 18.6057C151.333 18.5611 151.621 18.5611 151.621 18.593Z" fill="#455A64"/>
<path d="M129.572 52.7164C131.394 49.1477 128.945 44.666 124.937 44.6724C122.738 44.6787 120.366 45.8662 118.397 49.6392C113.148 59.6879 124.336 62.88 124.502 62.5991C124.604 62.4204 127.436 56.8917 129.572 52.7164Z" fill="#EF9D78"/>
<path d="M123.415 57.1853C123.39 57.1279 123.179 57.2173 122.808 57.1981C122.45 57.179 121.906 57.013 121.485 56.5405C120.628 55.5957 120.609 53.4442 121.51 51.6056C121.964 50.6799 122.61 49.9074 123.306 49.352C123.997 48.7774 124.745 48.5092 125.327 48.6944C125.921 48.8476 126.132 49.3647 126.113 49.7159C126.1 50.067 125.934 50.233 125.979 50.2777C125.992 50.316 126.286 50.2202 126.42 49.7669C126.484 49.5435 126.49 49.2498 126.356 48.9306C126.215 48.6114 125.915 48.3241 125.518 48.1709C124.713 47.8198 123.645 48.1709 122.872 48.7774C122.06 49.3647 121.312 50.2202 120.8 51.2608C119.81 53.3165 119.854 55.7553 121.095 56.93C121.708 57.4854 122.405 57.5748 122.833 57.4982C123.268 57.4216 123.441 57.2237 123.415 57.1853Z" fill="#D37A57"/>
<path d="M119.541 192.281C118.652 190.634 116.364 189.619 116.364 189.619L114.459 184.926C114.459 184.926 115.219 183.279 114.459 181.249C113.698 179.219 108.111 167.421 108.232 167.044L106.787 166.961C106.787 166.961 111.94 179.442 112.445 180.081C112.95 180.713 113.692 184.428 112.426 184.939C111.154 185.444 108.456 184.071 107.311 182.928C106.167 181.785 102.53 173.199 101.89 171.424C101.257 169.649 102.389 167.178 102.389 167.178L103.405 164.772H102.005C102.005 164.772 101.117 167.306 100.605 169.719C100.1 172.126 105.816 182.66 106.704 183.796C107.593 184.939 110.642 185.827 112.292 186.969C113.941 188.112 113.692 191.662 113.692 191.662C113.692 191.662 112.292 193.564 112.17 195.85C112.042 198.135 117.125 208.912 120.551 211.197C123.978 213.483 128.044 211.829 128.427 211.957C128.811 212.085 129.699 210.182 129.699 210.182C129.699 210.182 120.436 193.935 119.541 192.281ZM124.227 211.14C122.399 210.993 120.513 209.742 119.509 208.414C119.094 207.865 114.644 200.134 114.075 198.697C113.071 196.188 113.768 194.796 114.133 193.322C114.663 191.189 117.968 192.441 117.968 192.441C117.968 192.441 127.698 209.231 127.475 209.742C127.251 210.252 126.055 211.28 124.227 211.14Z" fill="#999999"/>
<path d="M129.706 210.169C129.706 210.169 158.033 199.406 159.356 198.186C160.679 196.967 165.461 189.957 165.461 189.957C165.461 189.957 167.801 190.366 167.494 190.972C167.187 191.579 162.712 198.595 157.931 200.625C153.149 202.655 128.434 211.951 128.434 211.951L129.706 210.169Z" fill="#999999"/>
<path d="M40.0644 121.461L28.3973 188.655C28.3973 188.655 24.1013 201.73 24.715 204.59C25.3287 207.45 27.4959 219.79 34.0423 223.672C40.5886 227.554 53.5534 225.019 56.2129 222.363C58.8723 219.707 64.1145 214.843 64.7283 212.595C65.342 210.348 69.6444 176.18 69.6444 176.18L71.3513 166.597C71.3513 166.597 65.0095 168.64 61.1227 165.985C57.2358 163.329 52.1214 151.888 52.1214 151.888L46.3934 160.673L40.0644 121.461Z" fill="#FB4094"/>
<path d="M52.1214 151.882C52.1278 151.888 52.0511 152.016 51.8977 152.259C51.7187 152.527 51.4885 152.878 51.2072 153.306C50.6063 154.219 49.7369 155.534 48.6948 157.187C46.5979 160.475 43.7915 165.084 40.7293 170.192C37.667 175.305 34.9053 179.94 32.8532 183.26C31.8303 184.92 30.9801 186.261 30.3855 187.174C30.0978 187.608 29.8677 187.953 29.6887 188.221C29.5289 188.457 29.4394 188.578 29.4266 188.572C29.4138 188.565 29.4905 188.431 29.6312 188.182C29.7974 187.908 30.0083 187.55 30.2768 187.103C30.8586 186.133 31.6641 184.786 32.6486 183.139C34.6624 179.755 37.4049 175.133 40.4416 170.019C43.5038 164.912 46.3422 160.315 48.4902 157.053C49.5579 155.419 50.4593 154.116 51.0922 153.229C51.399 152.808 51.6483 152.476 51.8337 152.214C52.0191 151.997 52.115 151.876 52.1214 151.882Z" fill="black"/>
<path d="M69.8874 174.833C69.8937 174.839 69.8106 174.935 69.6444 175.114C69.4718 175.286 69.2417 175.554 68.8965 175.861C68.2188 176.48 67.1704 177.329 65.668 178.038C64.9137 178.376 64.057 178.695 63.0917 178.849C62.1328 179.021 61.0779 179.072 59.9847 178.925C58.8979 178.785 57.7728 178.491 56.6732 178.032C55.58 177.565 54.4932 176.972 53.4576 176.25C52.4411 175.503 51.5397 174.654 50.7534 173.761C49.9862 172.848 49.3341 171.903 48.8035 170.951C47.7423 169.036 47.1669 167.134 46.8665 165.519C46.5724 163.897 46.5596 162.556 46.6044 161.643C46.6235 161.184 46.6811 160.833 46.7066 160.59C46.7386 160.347 46.7578 160.226 46.7706 160.226C46.8025 160.226 46.7578 160.737 46.7386 161.643C46.7322 162.556 46.7834 163.878 47.103 165.474C47.429 167.063 48.0172 168.928 49.0784 170.798C49.609 171.73 50.2547 172.656 51.0091 173.55C51.7826 174.424 52.6648 175.254 53.6621 175.982C54.6722 176.684 55.7398 177.272 56.8075 177.738C57.8815 178.191 58.9746 178.485 60.0295 178.625C61.0843 178.778 62.1136 178.74 63.0469 178.581C63.9867 178.44 64.8306 178.14 65.5721 177.827C67.0489 177.157 68.1165 176.352 68.807 175.765C69.5038 175.165 69.8618 174.814 69.8874 174.833Z" fill="black"/>
<path d="M52.1214 151.882L60.8478 146.277C60.8478 146.277 84.1244 136.834 86.4833 136.292C88.8487 135.749 91.5721 134.657 92.8443 136.292C94.1165 137.926 107.388 147.547 107.388 147.547C107.388 147.547 115.207 162.256 115.207 164.254C115.207 166.253 117.387 168.806 115.207 169.528C113.027 170.249 113.027 170.249 113.027 170.249C113.027 170.249 112.298 173.812 109.575 174.207C106.845 174.603 105.937 174.207 105.937 174.207C105.937 174.207 105.758 177.77 103.572 177.546C101.392 177.329 97.7541 174.207 97.7541 174.207C97.7541 174.207 96.1175 176.059 94.8453 176.059C93.5731 176.059 89.5711 173.333 89.5711 173.333L81.8357 166.617L75.0208 164.254L71.3385 166.591C71.3385 166.591 63.4689 167.261 62.2926 166.617C61.1227 165.978 52.1214 151.882 52.1214 151.882Z" fill="#EF9D78"/>
<path d="M96.8143 174.833C96.7951 174.839 96.6481 174.469 96.4115 173.805C96.2965 173.467 96.1494 173.058 95.9512 172.599C95.7595 172.133 95.5613 171.596 95.28 171.028C95.0179 170.453 94.7238 169.821 94.3594 169.17C94.027 168.506 93.605 167.83 93.1767 167.115C92.2753 165.704 91.2013 164.21 89.9291 162.754C88.6441 161.311 87.3016 160.047 86.023 158.975C85.3646 158.458 84.7509 157.953 84.1308 157.532C83.5298 157.085 82.9481 156.715 82.4111 156.383C81.8868 156.032 81.3754 155.77 80.9407 155.515C80.506 155.259 80.1224 155.061 79.8027 154.902C79.1698 154.582 78.8246 154.391 78.831 154.372C78.8374 154.353 79.2018 154.499 79.8603 154.787C80.1863 154.927 80.5891 155.106 81.0302 155.349C81.4777 155.585 81.9955 155.84 82.5389 156.178C83.0887 156.504 83.6832 156.868 84.297 157.302C84.9299 157.711 85.5564 158.215 86.2212 158.732C87.5254 159.805 88.8871 161.075 90.1848 162.531C91.4634 164.005 92.5502 165.519 93.4388 166.949C93.8672 167.676 94.2827 168.366 94.6087 169.043C94.9603 169.707 95.248 170.345 95.4973 170.932C95.7659 171.513 95.9512 172.062 96.1302 172.535C96.3156 173.007 96.4435 173.422 96.5394 173.767C96.7312 174.45 96.8335 174.827 96.8143 174.833Z" fill="#D37A57"/>
<path d="M105.931 174.61C105.918 174.616 105.854 174.52 105.732 174.329C105.617 174.137 105.432 173.863 105.234 173.486C104.831 172.739 104.32 171.615 103.815 170.179C103.303 168.749 102.817 167.006 102.242 165.091C101.647 163.188 100.963 161.088 99.787 159.122C98.6363 157.136 97.0189 155.61 95.4142 154.442C93.8032 153.267 92.2497 152.322 91.0735 151.358C89.878 150.407 89.0533 149.462 88.6058 148.741C88.3884 148.377 88.2222 148.083 88.1455 147.873C88.056 147.668 88.0112 147.56 88.024 147.553C88.056 147.534 88.2414 147.975 88.7145 148.664C89.1875 149.36 90.025 150.254 91.2205 151.173C92.4032 152.105 93.963 153.025 95.5996 154.193C97.2298 155.361 98.8984 156.925 100.081 158.949C101.283 160.96 101.967 163.086 102.549 165.001C103.111 166.923 103.572 168.666 104.051 170.096C104.524 171.532 104.997 172.656 105.362 173.416C105.726 174.182 105.956 174.597 105.931 174.61Z" fill="#D37A57"/>
<path d="M112.49 170.402C112.477 170.402 112.445 170.294 112.394 170.083C112.336 169.834 112.266 169.534 112.176 169.164C112.093 168.762 111.978 168.276 111.812 167.721C111.652 167.166 111.499 166.521 111.256 165.831C111.032 165.135 110.783 164.376 110.457 163.584C110.163 162.773 109.773 161.943 109.383 161.062C108.545 159.326 107.522 157.462 106.276 155.617C105.01 153.778 103.655 152.144 102.344 150.726C101.667 150.037 101.04 149.367 100.394 148.805C99.7742 148.211 99.1605 147.7 98.5915 147.234C98.0417 146.755 97.4983 146.372 97.038 146.021C96.5777 145.664 96.1686 145.376 95.8234 145.153C95.5101 144.936 95.2544 144.757 95.0498 144.61C94.8772 144.483 94.7877 144.412 94.7941 144.4C94.8005 144.387 94.9028 144.444 95.0882 144.553C95.3056 144.687 95.5741 144.847 95.9001 145.038C96.2517 145.249 96.68 145.517 97.1467 145.862C97.6198 146.2 98.176 146.57 98.7386 147.043C99.3139 147.496 99.9468 148 100.58 148.594C101.238 149.156 101.877 149.826 102.568 150.509C103.904 151.927 105.279 153.574 106.551 155.425C107.804 157.289 108.833 159.173 109.664 160.928C110.054 161.822 110.438 162.658 110.719 163.482C111.039 164.286 111.275 165.059 111.486 165.761C111.716 166.457 111.857 167.108 111.997 167.676C112.144 168.238 112.24 168.736 112.304 169.138C112.368 169.515 112.419 169.821 112.464 170.07C112.49 170.288 112.503 170.396 112.49 170.402Z" fill="#D37A57"/>
<path d="M78.2365 145.613C78.2429 145.67 77.7826 145.734 77.1113 146.028C76.4465 146.309 75.5642 146.864 74.8994 147.745C74.2345 148.626 73.9404 149.622 73.8445 150.337C73.7486 151.058 73.8062 151.524 73.7486 151.531C73.7103 151.537 73.5696 151.084 73.608 150.318C73.64 149.564 73.9149 148.492 74.6309 147.547C75.3469 146.602 76.3058 146.053 77.0218 145.817C77.7506 145.562 78.2365 145.581 78.2365 145.613Z" fill="#D37A57"/>
<path d="M84.7189 139.465C84.77 139.548 83.6449 140.263 82.5325 141.45C81.4074 142.625 80.7553 143.787 80.6722 143.742C80.5955 143.71 81.1325 142.44 82.296 141.22C83.4403 139.995 84.6869 139.388 84.7189 139.465Z" fill="#D37A57"/>
<path d="M175.952 63.6525C174.846 64.1058 174.622 65.4273 174.642 66.6212C174.661 68.1151 175.038 68.3577 176.265 70.8666C178.26 74.9589 180.651 82.7221 180.651 82.7221C180.651 82.7221 178.695 102.322 179.98 106.924C181.143 111.081 185.075 112.14 185.075 112.14L183.285 127.277H204.695C204.695 127.277 203.934 112.626 203.474 108.157C202.988 103.432 203.314 74.8631 203.314 74.8631L201.211 59.605L196.25 51.0438C196.25 51.0438 193.667 52.5951 194.786 55.7298C195.904 58.8644 196.64 64.8847 196.64 64.8847L184.244 46.2556C184.244 46.2556 181.808 46.8366 181.661 51.3374C181.661 51.3374 178.055 53.6804 180.376 57.4854C182.965 61.7309 185.657 74.4865 184.71 74.4929L177.02 63.212L175.952 63.6525Z" fill="#EF9D78"/>
<path d="M183.285 127.277C183.285 127.277 183.31 126.939 183.381 126.275C183.457 125.605 183.566 124.621 183.707 123.345C184.001 120.765 184.436 116.98 184.992 112.134L185.049 112.223C184.09 111.923 183.163 111.413 182.326 110.71C181.482 110.014 180.76 109.102 180.28 108.016C179.769 106.937 179.634 105.692 179.532 104.447C179.455 103.19 179.43 101.894 179.443 100.553C179.5 95.1968 179.916 89.2148 180.523 82.7157L180.529 82.7668C179.526 79.613 178.42 76.2868 177.026 72.916C176.675 72.0733 176.297 71.2369 175.875 70.407C175.479 69.5643 174.961 68.7854 174.654 67.8342C174.52 67.3554 174.495 66.8574 174.501 66.3722C174.514 65.887 174.559 65.389 174.712 64.9038C174.859 64.425 175.147 63.9462 175.607 63.6653C175.837 63.5185 176.074 63.4418 176.291 63.3461L176.969 63.0652L177.084 63.0205L177.154 63.1226C179.705 66.8574 182.403 70.8156 185.177 74.8823L184.889 74.9398C185.011 73.9949 184.96 72.9798 184.851 71.9839C184.73 70.988 184.576 69.9856 184.34 68.9961C183.899 67.0042 183.272 65.0315 182.55 63.0652C181.846 61.0925 180.958 59.1772 180.095 57.2045C179.686 56.2022 179.468 55.053 179.75 53.955C180.005 52.8569 180.664 51.8801 181.578 51.197L181.508 51.3183C181.629 50.3734 181.814 49.3903 182.192 48.439C182.377 47.9666 182.626 47.5005 182.94 47.0792C183.266 46.6642 183.643 46.2748 184.218 46.0896L184.32 46.0577L184.391 46.1599C184.436 46.2301 184.487 46.3003 184.531 46.3769C188.725 52.6845 192.823 58.8452 196.78 64.7953L196.48 64.9038C196.154 62.4204 195.757 59.9689 195.169 57.6067C195.022 57.0194 194.856 56.432 194.658 55.8638C194.466 55.2765 194.319 54.6572 194.351 54.0252C194.396 52.7547 195.131 51.5928 196.16 50.9033L196.294 50.8139L196.377 50.9608C198.072 53.8847 199.721 56.7448 201.332 59.5283L201.345 59.5539L201.351 59.5858C202.08 64.923 202.783 70.0112 203.442 74.844V74.8568V74.8695C203.352 82.7731 203.307 90 203.314 96.4034C203.32 99.6018 203.339 102.596 203.41 105.354C203.448 106.739 203.525 108.048 203.653 109.312C203.761 110.576 203.838 111.783 203.915 112.926C204.209 117.497 204.394 121.085 204.516 123.53C204.573 124.749 204.618 125.681 204.65 126.32C204.675 126.952 204.682 127.277 204.682 127.277C204.682 127.277 204.65 126.952 204.612 126.32C204.573 125.681 204.516 124.749 204.439 123.53C204.286 121.085 204.081 117.497 203.761 112.932C203.678 111.789 203.595 110.589 203.48 109.325C203.346 108.067 203.263 106.733 203.218 105.354C203.135 102.59 203.103 99.5955 203.09 96.397C203.058 89.9937 203.09 82.7668 203.16 74.8631V74.8823C202.489 70.0559 201.786 64.9613 201.044 59.6305L201.063 59.6879C199.452 56.9044 197.797 54.0507 196.103 51.1268L196.32 51.1842C195.387 51.8099 194.696 52.8952 194.664 54.0507C194.639 54.6317 194.766 55.2063 194.958 55.7681C195.156 56.349 195.329 56.9364 195.476 57.5365C196.071 59.9242 196.467 62.3757 196.799 64.8783L196.889 65.5742L196.499 64.9868C192.542 59.0368 188.438 52.876 184.244 46.5748C184.193 46.4982 184.148 46.428 184.103 46.3578L184.276 46.428C183.867 46.5557 183.477 46.9196 183.189 47.2963C182.895 47.6857 182.665 48.1198 182.486 48.5731C182.121 49.4796 181.942 50.4437 181.821 51.3694L181.814 51.4396L181.751 51.4843C180.926 52.0972 180.287 53.0292 180.056 54.0379C179.794 55.053 179.992 56.1256 180.389 57.0896C181.239 59.0368 182.14 60.9776 182.85 62.963C183.579 64.9357 184.205 66.9276 184.653 68.9386C184.889 69.9409 185.049 70.956 185.171 71.9647C185.279 72.9798 185.337 73.9821 185.203 75.0164L185.152 75.4186L184.915 75.0738C182.14 71.0071 179.449 67.0489 176.905 63.3078L177.09 63.3652C176.655 63.5568 176.15 63.7228 175.767 63.9398C175.383 64.1696 175.134 64.5782 174.993 65.0124C174.853 65.4529 174.801 65.9253 174.795 66.3913C174.789 66.8638 174.808 67.3298 174.936 67.7639C175.211 68.6322 175.735 69.443 176.138 70.2857C176.559 71.122 176.937 71.9711 177.288 72.8138C178.682 76.2038 179.782 79.53 180.785 82.6965L180.792 82.7221V82.7476C180.171 89.2403 179.743 95.2223 179.666 100.566C179.647 101.9 179.673 103.196 179.743 104.441C179.845 105.686 179.967 106.893 180.466 107.946C181.393 110.078 183.278 111.47 185.107 112.07L185.177 112.096L185.171 112.16C184.583 117.005 184.122 120.785 183.809 123.364C183.649 124.641 183.528 125.624 183.445 126.288C183.342 126.939 183.285 127.277 183.285 127.277Z" fill="#D37A57"/>
<path d="M192.746 76.1336C192.721 76.1336 192.644 75.7569 192.516 75.0802C192.401 74.3971 192.19 73.4139 191.915 72.2009C191.34 69.7877 190.362 66.4935 188.751 63.0652C187.159 59.6305 185.318 56.7257 183.931 54.67C183.24 53.6421 182.665 52.8122 182.262 52.2504C181.866 51.6822 181.648 51.3566 181.667 51.3438C181.687 51.3311 181.936 51.6247 182.364 52.1738C182.799 52.7164 183.406 53.5208 184.122 54.5423C185.561 56.5725 187.447 59.4773 189.051 62.9311C190.669 66.385 191.628 69.7175 192.145 72.1499C192.395 73.3692 192.567 74.3652 192.644 75.0547C192.734 75.7442 192.772 76.1272 192.746 76.1336Z" fill="#D37A57"/>
<path d="M199.395 71.371C199.312 71.4093 198.609 69.9218 197.829 68.0512C197.049 66.1807 196.486 64.6421 196.569 64.6038C196.652 64.5655 197.356 66.053 198.136 67.9236C198.916 69.7941 199.478 71.3391 199.395 71.371Z" fill="#D37A57"/>
<path d="M181.572 121.008C177.819 154.123 172.928 189.376 167.303 226.002H210.883C219.079 207.884 214.067 192.077 211.88 169.547L204.695 118.39L181.572 121.008Z" fill="#FB4094"/>
<path d="M167.303 226.002C167.296 226.002 167.303 225.926 167.315 225.785C167.334 225.626 167.36 225.421 167.392 225.16C167.469 224.585 167.584 223.781 167.724 222.746C168.031 220.633 168.472 217.613 169.009 213.891C170.115 206.396 171.631 196.08 173.305 184.677C174.948 173.263 176.342 162.914 177.256 155.412C177.723 151.665 178.075 148.626 178.311 146.526C178.433 145.491 178.528 144.681 178.592 144.106C178.624 143.844 178.656 143.64 178.676 143.48C178.695 143.34 178.707 143.27 178.714 143.27C178.72 143.27 178.72 143.346 178.707 143.487C178.695 143.646 178.682 143.857 178.656 144.119C178.605 144.693 178.528 145.504 178.433 146.545C178.234 148.651 177.915 151.69 177.48 155.444C176.623 162.952 175.268 173.307 173.625 184.729C171.982 196.143 170.39 206.46 169.227 213.93C168.639 217.645 168.166 220.665 167.833 222.772C167.667 223.8 167.533 224.604 167.437 225.172C167.392 225.434 167.354 225.638 167.328 225.798C167.322 225.932 167.309 226.002 167.303 226.002Z" fill="#263238"/>
<path d="M261.726 225.715H137.454L153.487 138.616C154.056 135.526 156.754 133.285 159.9 133.285H271.565C275.656 133.285 278.737 137.007 277.964 141.016L261.726 225.715Z" fill="#7F7F7F"/>
<path d="M137.454 225.715H90.3191L90.5109 225.575C94.7174 222.427 99.7934 220.652 105.048 220.493L138.758 219.503L137.454 225.715Z" fill="#7F7F7F"/>
<path d="M167.303 133.4C167.296 133.432 166.957 133.336 166.299 133.329C165.647 133.323 164.656 133.457 163.537 134.013C162.425 134.562 161.185 135.538 160.226 137.02C159.267 138.507 158.615 140.454 158.199 142.65C157.796 144.853 157.438 147.298 156.997 149.909C156.55 152.52 156.07 155.304 155.52 158.234C154.44 164.088 153.155 170.505 151.761 177.233C148.955 190.685 146.359 202.847 144.659 211.689C143.802 216.107 143.144 219.688 142.696 222.165C142.472 223.378 142.3 224.33 142.178 225.019C142.121 225.326 142.07 225.568 142.031 225.76C141.993 225.926 141.974 226.009 141.967 226.009C141.961 226.009 141.967 225.919 141.987 225.753C142.012 225.562 142.044 225.313 142.089 225.006C142.191 224.317 142.338 223.359 142.524 222.14C142.914 219.65 143.527 216.062 144.339 211.631C145.957 202.77 148.501 190.596 151.307 177.144C152.701 170.422 153.999 164.005 155.105 158.164C155.667 155.24 156.16 152.456 156.626 149.852C157.08 147.247 157.457 144.815 157.886 142.593C158.327 140.378 159.011 138.399 160.021 136.885C161.031 135.372 162.322 134.389 163.473 133.853C164.63 133.31 165.653 133.202 166.312 133.24C166.97 133.272 167.303 133.4 167.303 133.4Z" fill="#263238"/>
<path d="M219.788 177.534C219.788 180.847 217.097 183.535 213.779 183.535C210.461 183.535 207.77 180.847 207.77 177.534C207.77 174.22 210.461 171.532 213.779 171.532C217.097 171.532 219.788 174.22 219.788 177.534Z" fill="#F5F5F5"/>
<path d="M292.31 225.811C292.31 225.9 226.872 225.977 146.161 225.977C65.4251 225.977 0 225.906 0 225.811C0 225.715 65.4251 225.645 146.161 225.645C226.865 225.645 292.31 225.721 292.31 225.811Z" fill="#263238"/>
</svg>
