<svg width="35" height="40" viewBox="0 0 35 40" fill="none" xmlns="http://www.w3.org/2000/svg">
<path d="M5.71336 0C6.09218 0 6.45549 0.150485 6.72335 0.418351C6.99122 0.686217 7.14171 1.04952 7.14171 1.42834V2.85668H12.8551V1.42834C12.8551 1.04952 13.0056 0.686217 13.2734 0.418351C13.5413 0.150485 13.9046 0 14.2834 0C14.6622 0 15.0255 0.150485 15.2934 0.418351C15.5613 0.686217 15.7118 1.04952 15.7118 1.42834V2.85668H21.4251V1.42834C21.4251 1.04952 21.5756 0.686217 21.8435 0.418351C22.1113 0.150485 22.4746 0 22.8535 0C23.2323 0 23.5956 0.150485 23.8634 0.418351C24.1313 0.686217 24.2818 1.04952 24.2818 1.42834V2.85668C25.4183 2.85668 26.5082 3.30814 27.3118 4.11174C28.1154 4.91533 28.5668 6.00525 28.5668 7.14171V14.3863C27.0834 14.6433 25.7161 15.3539 24.6532 16.4202L20.8224 20.2539C20.5805 20.0846 20.292 19.9947 19.9968 19.9968H8.57005C8.19123 19.9968 7.82792 20.1473 7.56006 20.4151C7.29219 20.683 7.14171 21.0463 7.14171 21.4251C7.14171 21.8039 7.29219 22.1672 7.56006 22.4351C7.82792 22.703 8.19123 22.8535 8.57005 22.8535H18.2228L12.4037 28.6697C12.0466 29.0267 11.7181 29.4095 11.4153 29.8123C11.3709 29.468 11.2025 29.1516 10.9417 28.9224C10.6809 28.6931 10.3456 28.5667 9.99839 28.5668H8.57005C8.19123 28.5668 7.82792 28.7173 7.56006 28.9852C7.29219 29.253 7.14171 29.6163 7.14171 29.9952C7.14171 30.374 7.29219 30.7373 7.56006 31.0052C7.82792 31.273 8.19123 31.4235 8.57005 31.4235H9.99839C10.1507 31.4239 10.3022 31.3998 10.4469 31.3521C10.0646 32.0925 9.76934 32.8748 9.56703 33.6831L8.70145 37.1426C8.45961 38.0897 8.52974 39.0895 8.90142 39.9936H4.28502C3.14856 39.9936 2.05865 39.5421 1.25505 38.7385C0.451457 37.9349 0 36.845 0 35.7085V7.14171C0 6.00525 0.451457 4.91533 1.25505 4.11174C2.05865 3.30814 3.14856 2.85668 4.28502 2.85668V1.42834C4.28502 1.04952 4.43551 0.686217 4.70338 0.418351C4.97124 0.150485 5.33455 0 5.71336 0ZM7.14171 12.8551C7.14171 13.2339 7.29219 13.5972 7.56006 13.8651C7.82792 14.1329 8.19123 14.2834 8.57005 14.2834H19.9968C20.3756 14.2834 20.7389 14.1329 21.0068 13.8651C21.2746 13.5972 21.4251 13.2339 21.4251 12.8551C21.4251 12.4763 21.2746 12.1129 21.0068 11.8451C20.7389 11.5772 20.3756 11.4267 19.9968 11.4267H8.57005C8.19123 11.4267 7.82792 11.5772 7.56006 11.8451C7.29219 12.1129 7.14171 12.4763 7.14171 12.8551ZM26.6757 18.4399C27.5118 17.6038 28.6457 17.1341 29.828 17.1341C31.0104 17.1341 32.1443 17.6038 32.9804 18.4399C33.8165 19.2759 34.2861 20.4099 34.2861 21.5922C34.2861 22.7746 33.8165 23.9085 32.9804 24.7446L20.7281 36.994C19.7117 38.0112 18.4379 38.7331 17.043 39.0823L13.5835 39.9478C13.2915 40.021 12.9854 40.0173 12.6952 39.937C12.405 39.8568 12.1406 39.7026 11.9277 39.4897C11.7148 39.2768 11.5607 39.0124 11.4804 38.7222C11.4001 38.432 11.3964 38.126 11.4696 37.8339L12.338 34.3773C12.6865 32.9804 13.4064 31.7063 14.4234 30.6922L26.6757 18.4399Z" fill="#F6147A"/>
</svg>
