<svg width="28" height="41" viewBox="0 0 28 41" fill="none" xmlns="http://www.w3.org/2000/svg">
<path d="M22.275 0.174209C22.5241 0.318629 22.7169 0.543261 22.8218 0.811409C22.9268 1.07956 22.9377 1.37537 22.8528 1.65052L18.2686 16.546H26.7268C26.9754 16.5459 27.2185 16.6186 27.4263 16.7551C27.634 16.8916 27.7972 17.0859 27.8957 17.3141C27.9943 17.5424 28.0238 17.7944 27.9807 18.0392C27.9377 18.284 27.8238 18.5109 27.6533 18.6917L7.29042 40.3273C7.0934 40.5368 6.83121 40.6734 6.5466 40.7148C6.26199 40.7563 5.97175 40.7001 5.72317 40.5554C5.47459 40.4107 5.28234 40.1862 5.17775 39.9182C5.07316 39.6503 5.0624 39.3549 5.14723 39.0801L9.73143 24.1821H1.27319C1.02462 24.1822 0.781466 24.1095 0.573738 23.973C0.366011 23.8364 0.202806 23.6421 0.10427 23.4139C0.00573364 23.1857 -0.0238193 22.9336 0.0192586 22.6888C0.0623366 22.444 0.176159 22.2172 0.346677 22.0363L20.7096 0.400746C20.9064 0.191515 21.1681 0.0550062 21.4524 0.0134148C21.7366 -0.0281766 22.0265 0.0275958 22.275 0.171664V0.174209Z" fill="#F6147A"/>
</svg>
