<svg width="20" height="19" viewBox="0 0 20 19" fill="none" xmlns="http://www.w3.org/2000/svg">
<path fill-rule="evenodd" clip-rule="evenodd" d="M9.97042 0C15.4679 0 19.9408 3.62923 19.9408 8.091C19.9408 9.87695 19.2491 11.4847 17.8034 13.0687C15.7121 15.4766 11.0348 18.4091 9.97042 18.8578C8.93599 19.294 9.05563 18.6123 9.10299 18.3431L9.10673 18.3206L9.24881 17.4669C9.28246 17.2127 9.31736 16.8176 9.21641 16.5659C9.10424 16.2879 8.66305 16.1434 8.33901 16.0736C3.54698 15.4417 0 12.0904 0 8.091C0 3.62923 4.47423 0 9.97042 0ZM6.25893 9.57908H4.35832V6.12932C4.35832 6.07797 4.33801 6.0287 4.30182 5.99228C4.26562 5.95585 4.21649 5.93522 4.16514 5.93489H3.46472C3.43919 5.93489 3.41391 5.93992 3.39032 5.94969C3.36673 5.95946 3.3453 5.97378 3.32724 5.99184C3.30919 6.00989 3.29487 6.03132 3.2851 6.05491C3.27533 6.0785 3.2703 6.10378 3.2703 6.12932V10.4739C3.2703 10.525 3.29149 10.5736 3.32514 10.6073V10.6085L3.32763 10.611L3.33012 10.6135C3.36626 10.6483 3.41458 10.6675 3.46472 10.6671H6.25893C6.36611 10.6671 6.45211 10.5799 6.45211 10.4727V9.77475C6.45227 9.74922 6.44741 9.7239 6.43779 9.70025C6.42817 9.6766 6.41398 9.65508 6.39605 9.63691C6.37811 9.61874 6.35677 9.60428 6.33324 9.59436C6.30971 9.58444 6.28446 9.57924 6.25893 9.57908ZM7.24476 5.93489H7.94518C8.05236 5.93489 8.13836 6.02213 8.13836 6.12932V10.4739C8.13836 10.5811 8.05112 10.6671 7.94518 10.6671H7.24476C7.19341 10.6671 7.14414 10.6468 7.10772 10.6106C7.07129 10.5744 7.05066 10.5253 7.05033 10.4739V6.12932C7.05033 6.02213 7.13758 5.93489 7.24476 5.93489ZM12.0592 5.93489H12.7572C12.8656 5.93489 12.9528 6.02213 12.9528 6.12932V10.4739C12.9528 10.5811 12.8656 10.6671 12.7584 10.6671H12.0592C12.0424 10.6672 12.0256 10.6651 12.0094 10.6609H12.0069C12.0023 10.6594 11.9977 10.6577 11.9932 10.6559L11.9869 10.6534L11.9782 10.6497C11.9748 10.6482 11.9715 10.6466 11.9682 10.6447L11.9645 10.6434L11.952 10.6359L11.9508 10.6347C11.9314 10.6217 11.9145 10.6052 11.9009 10.5861L9.90686 7.89408V10.4739C9.90702 10.4994 9.90215 10.5247 9.89251 10.5482C9.88288 10.5718 9.86868 10.5933 9.85072 10.6113C9.83277 10.6294 9.81142 10.6437 9.7879 10.6535C9.76438 10.6633 9.73916 10.6684 9.71368 10.6684H9.01451C8.96316 10.6684 8.91389 10.648 8.87747 10.6118C8.84104 10.5757 8.82041 10.5265 8.82008 10.4752V6.12932C8.82008 6.02213 8.90732 5.93489 9.01451 5.93489H9.72116L9.72739 5.93614H9.73487L9.73861 5.93739H9.74609L9.75855 5.94112H9.76104L9.76353 5.94237L9.776 5.94611L9.78223 5.9486C9.78606 5.95006 9.7898 5.95172 9.79345 5.95359L9.79718 5.95483L9.79968 5.95608C9.8053 5.95903 9.81071 5.96237 9.81588 5.96605L9.81962 5.96854L9.82585 5.97228V5.97353C9.82834 5.97353 9.82959 5.97602 9.83084 5.97727C9.83429 5.97958 9.83762 5.98207 9.84081 5.98475L9.84454 5.98848C9.85518 5.99828 9.86479 6.00914 9.87321 6.02089L11.8648 8.71165V6.12932C11.8648 6.02213 11.952 5.93489 12.0592 5.93489ZM16.8139 6.82849C16.8139 6.93567 16.7266 7.02292 16.6207 7.02292H14.7188V7.75823H16.6194C16.7266 7.75823 16.8126 7.84548 16.8126 7.95141V8.65059C16.8126 8.75777 16.7254 8.84501 16.6194 8.84501H14.7188V9.58033H16.6194C16.7266 9.58033 16.8126 9.66757 16.8126 9.77351V10.4727C16.8126 10.5799 16.7254 10.6671 16.6194 10.6671H13.8252C13.7998 10.6672 13.7746 10.6623 13.7511 10.6527C13.7276 10.6431 13.7062 10.6289 13.6881 10.611L13.6856 10.6073C13.6508 10.5716 13.6312 10.5238 13.6308 10.4739V6.12932C13.6308 6.07697 13.652 6.02961 13.6844 5.99596L13.6881 5.99222L13.6894 5.99098C13.7255 5.95511 13.7743 5.93496 13.8252 5.93489H16.6194C16.7266 5.93489 16.8126 6.02213 16.8126 6.12932V6.82849H16.8139Z" fill="#F6147A"/>
</svg>
