<svg width="42" height="42" viewBox="0 0 42 42" fill="none" xmlns="http://www.w3.org/2000/svg">
<path d="M22.2353 19.7647C23.5458 19.7647 24.8026 20.2853 25.7292 21.2119C26.6559 22.1386 27.1765 23.3954 27.1765 24.7059H22.2353C20.9248 24.7059 19.668 25.2265 18.7414 26.1531C17.8147 27.0798 17.2941 28.3366 17.2941 29.6471V36.8044C16.1428 36.9724 14.9051 37.0588 13.5882 37.0588C5.15859 37.0588 0 33.4864 0 28.4118V24.7059C0 23.3954 0.520587 22.1386 1.44724 21.2119C2.37389 20.2853 3.63069 19.7647 4.94118 19.7647H22.2353ZM28.0955 20.1674C29.0689 21.4225 29.6471 22.9962 29.6471 24.7059H39.5294C39.5294 23.3954 39.0088 22.1386 38.0822 21.2119C37.1555 20.2853 35.8987 19.7647 34.5882 19.7647H27.7571L28.0955 20.1674ZM13.5882 0C14.7238 -1.6921e-08 15.8482 0.223663 16.8973 0.658218C17.9464 1.09277 18.8997 1.72971 19.7026 2.53266C20.5056 3.33562 21.1425 4.28886 21.5771 5.33797C22.0116 6.38708 22.2353 7.51151 22.2353 8.64706C22.2353 9.78261 22.0116 10.907 21.5771 11.9561C21.1425 13.0053 20.5056 13.9585 19.7026 14.7615C18.8997 15.5644 17.9464 16.2013 16.8973 16.6359C15.8482 17.0705 14.7238 17.2941 13.5882 17.2941C11.2949 17.2941 9.09548 16.3831 7.47384 14.7615C5.8522 13.1398 4.94118 10.9404 4.94118 8.64706C4.94118 6.35372 5.8522 4.1543 7.47384 2.53266C9.09548 0.911027 11.2949 3.41735e-08 13.5882 0ZM30.8824 4.94118C32.5205 4.94118 34.0915 5.59191 35.2498 6.75022C36.4081 7.90854 37.0588 9.47954 37.0588 11.1176C37.0588 12.7557 36.4081 14.3268 35.2498 15.4851C34.0915 16.6434 32.5205 17.2941 30.8824 17.2941C29.2443 17.2941 27.6732 16.6434 26.5149 15.4851C25.3566 14.3268 24.7059 12.7557 24.7059 11.1176C24.7059 9.47954 25.3566 7.90854 26.5149 6.75022C27.6732 5.59191 29.2443 4.94118 30.8824 4.94118ZM42 30.8824V38.2941C42 39.277 41.6096 40.2196 40.9146 40.9146C40.2196 41.6096 39.277 42 38.2941 42H23.4706C22.4877 42 21.5451 41.6096 20.8501 40.9146C20.1551 40.2196 19.7647 39.277 19.7647 38.2941V30.8824C19.7647 29.8995 20.1551 28.9569 20.8501 28.2619C21.5451 27.5669 22.4877 27.1765 23.4706 27.1765H38.2941C39.277 27.1765 40.2196 27.5669 40.9146 28.2619C41.6096 28.9569 42 29.8995 42 30.8824ZM38.2941 39.5294C38.2941 39.2018 38.4243 38.8876 38.6559 38.6559C38.8876 38.4243 39.2018 38.2941 39.5294 38.2941V35.8235C38.5466 35.8235 37.6039 36.214 36.909 36.909C36.214 37.6039 35.8235 38.5466 35.8235 39.5294H38.2941ZM39.5294 30.8824C39.2018 30.8824 38.8876 30.7522 38.6559 30.5205C38.4243 30.2889 38.2941 29.9747 38.2941 29.6471H35.8235C35.8235 30.6299 36.214 31.5725 36.909 32.2675C37.6039 32.9625 38.5466 33.3529 39.5294 33.3529V30.8824ZM23.4706 29.6471C23.4706 29.9747 23.3404 30.2889 23.1088 30.5205C22.8771 30.7522 22.5629 30.8824 22.2353 30.8824V33.3529C23.2182 33.3529 24.1608 32.9625 24.8557 32.2675C25.5507 31.5725 25.9412 30.6299 25.9412 29.6471H23.4706ZM22.2353 38.2941C22.5629 38.2941 22.8771 38.4243 23.1088 38.6559C23.3404 38.8876 23.4706 39.2018 23.4706 39.5294H25.9412C25.9412 38.5466 25.5507 37.6039 24.8557 36.909C24.1608 36.214 23.2182 35.8235 22.2353 35.8235V38.2941ZM30.8824 30.8824C29.8995 30.8824 28.9569 31.2728 28.2619 31.9678C27.5669 32.6628 27.1765 33.6054 27.1765 34.5882C27.1765 35.5711 27.5669 36.5137 28.2619 37.2087C28.9569 37.9037 29.8995 38.2941 30.8824 38.2941C31.8652 38.2941 32.8078 37.9037 33.5028 37.2087C34.1978 36.5137 34.5882 35.5711 34.5882 34.5882C34.5882 33.6054 34.1978 32.6628 33.5028 31.9678C32.8078 31.2728 31.8652 30.8824 30.8824 30.8824Z" fill="#F6147A"/>
</svg>
