<svg width="36" height="42" viewBox="0 0 36 42" fill="none" xmlns="http://www.w3.org/2000/svg">
<path fill-rule="evenodd" clip-rule="evenodd" d="M18 0C16.2257 0 13.2609 0.681428 10.4709 1.44C7.61658 2.21143 4.73915 3.12428 3.04715 3.67714C2.33973 3.91076 1.71256 4.33919 1.23768 4.91323C0.76281 5.48726 0.459495 6.18361 0.362585 6.92228C-1.16999 18.4346 2.3863 26.9666 6.70115 32.6108C8.53093 35.0253 10.7126 37.1515 13.1734 38.9185C14.166 39.6205 15.0866 40.158 15.8683 40.5257C16.5883 40.8651 17.3623 41.1428 18 41.1428C18.6377 41.1428 19.4091 40.8651 20.1317 40.5257C21.0741 40.0676 21.9757 39.53 22.8266 38.9185C25.2874 37.1516 27.4691 35.0254 29.2988 32.6108C33.6137 26.9666 37.17 18.4346 35.6374 6.92228C35.5407 6.18326 35.2374 5.4865 34.7626 4.91202C34.2877 4.33755 33.6605 3.90865 32.9528 3.67457C30.4966 2.86923 28.0213 2.1233 25.5291 1.43743C22.7391 0.683999 19.7743 0 18 0ZM23.5183 13.2326C23.7597 12.9911 24.0871 12.8555 24.4286 12.8555C24.77 12.8555 25.0974 12.9911 25.3389 13.2326C25.5803 13.474 25.7159 13.8014 25.7159 14.1428C25.7159 14.4843 25.5803 14.8117 25.3389 15.0531L17.6246 22.7674C17.5051 22.8871 17.3633 22.9821 17.2071 23.047C17.0509 23.1118 16.8834 23.1451 16.7143 23.1451C16.5452 23.1451 16.3777 23.1118 16.2215 23.047C16.0653 22.9821 15.9234 22.8871 15.804 22.7674L11.9469 18.9103C11.8273 18.7907 11.7325 18.6488 11.6678 18.4926C11.6031 18.3364 11.5698 18.169 11.5698 18C11.5698 17.8309 11.6031 17.6635 11.6678 17.5073C11.7325 17.3512 11.8273 17.2092 11.9469 17.0897C12.0664 16.9702 12.2083 16.8753 12.3645 16.8106C12.5207 16.7459 12.6881 16.7126 12.8571 16.7126C13.0262 16.7126 13.1936 16.7459 13.3498 16.8106C13.506 16.8753 13.6479 16.9702 13.7674 17.0897L16.7143 20.0391L23.5183 13.2326Z" fill="#F6147A"/>
</svg>
