<svg width="41" height="41" viewBox="0 0 41 41" fill="none" xmlns="http://www.w3.org/2000/svg">
<path d="M7.32143 0C5.37966 0 3.51743 0.771363 2.1444 2.1444C0.771363 3.51743 0 5.37966 0 7.32143V19.0357H19.0357V0H7.32143Z" fill="#F6147A"/>
<path d="M19.0357 21.9643H0V33.6786C0 35.6203 0.771363 37.4826 2.1444 38.8556C3.51743 40.2286 5.37966 41 7.32143 41H19.0357V21.9643Z" fill="#F6147A"/>
<path d="M21.9643 21.9643H41V33.6786C41 35.6203 40.2286 37.4826 38.8556 38.8556C37.4826 40.2286 35.6203 41 33.6786 41H21.9643V21.9643Z" fill="#F6147A"/>
<path d="M41 19.0357V7.32143C41 5.37966 40.2286 3.51743 38.8556 2.1444C37.4826 0.771363 35.6203 0 33.6786 0H21.9643V19.0357H41Z" fill="#F6147A"/>
</svg>
