<svg width="20" height="20" viewBox="0 0 20 20" fill="none" xmlns="http://www.w3.org/2000/svg">
<path fill-rule="evenodd" clip-rule="evenodd" d="M14.4985 11.9735C14.2504 11.8495 13.0341 11.2517 12.8077 11.1684C12.5812 11.086 12.4164 11.0452 12.2507 11.2933C12.0859 11.5398 11.6121 12.0975 11.4681 12.2624C11.3233 12.4281 11.1792 12.448 10.932 12.3248C10.6847 12.1999 9.88714 11.9394 8.94222 11.0968C8.20709 10.4408 7.71007 9.63076 7.56604 9.38266C7.42202 9.1354 7.55023 9.00136 7.67427 8.87815C7.78583 8.76742 7.92153 8.58926 8.04558 8.44523C8.16963 8.30037 8.21042 8.19714 8.29284 8.03146C8.3761 7.86662 8.33447 7.72259 8.27203 7.59855C8.21042 7.4745 7.7159 6.25651 7.50943 5.76115C7.30879 5.27912 7.10482 5.34488 6.9533 5.33656C6.80844 5.3299 6.6436 5.32823 6.47876 5.32823C6.31392 5.32823 6.04584 5.38984 5.81939 5.63794C5.59211 5.8852 4.95356 6.48379 4.95356 7.70178C4.95356 8.91894 5.83937 10.0953 5.96342 10.261C6.08747 10.4258 7.70757 12.9251 10.1894 13.9965C10.7804 14.2513 11.2408 14.4037 11.5997 14.5169C12.1924 14.7059 12.7319 14.6792 13.1582 14.6151C13.6327 14.5444 14.6217 14.0165 14.8282 13.4388C15.0339 12.861 15.0338 12.3656 14.9722 12.2624C14.9106 12.1592 14.7458 12.0975 14.4977 11.9735H14.4985ZM9.98455 18.1367H9.98122C8.50716 18.137 7.06017 17.7407 5.79192 16.9895L5.49221 16.8113L2.37688 17.6289L3.20858 14.5918L3.01293 14.2804C2.18884 12.9687 1.75272 11.4505 1.75498 9.90133C1.75664 5.36403 5.44808 1.67259 9.98788 1.67259C12.1858 1.67259 14.2521 2.5301 15.8056 4.08527C16.5718 4.84835 17.1792 5.75579 17.5924 6.75511C18.0057 7.75442 18.2167 8.82576 18.2133 9.90716C18.2116 14.4445 14.5202 18.1367 9.98455 18.1367ZM16.9878 2.9039C16.0705 1.98056 14.9791 1.24845 13.7768 0.749979C12.5745 0.251512 11.2852 -0.0033936 9.98372 3.41151e-05C4.5273 3.41151e-05 0.0849182 4.44159 0.0832531 9.9005C0.0824206 11.6455 0.537815 13.3488 1.40448 14.8499L0 19.9808L5.24828 18.6038C6.70011 19.3948 8.32705 19.8092 9.98038 19.8093H9.98455C15.441 19.8093 19.8833 15.3677 19.885 9.90799C19.889 8.60697 19.635 7.31807 19.1378 6.11584C18.6405 4.91361 17.9097 3.82191 16.9878 2.9039Z" fill="#F6147A"/>
</svg>
